<svg width="90" height="18" viewBox="0 0 90 18" fill="none" xmlns="http://www.w3.org/2000/svg">
<g clip-path="url(#clip0_1590_18619)">
<path d="M13.1336 8.24016C13.0807 9.85328 12.873 10.1754 11.9656 10.1754V12.2029H12.3037C14.5648 12.2029 15.1082 11.0348 15.1918 8.43934L15.284 5.56721H17.4037V12.2029H19.6156V3.55574H13.2873L13.1336 8.24016ZM25.1139 6.18197H23.5168V3.55574H21.3049V12.2029H25.1447C27.557 12.2029 28.4164 10.6365 28.4164 9.16107C28.4164 7.25656 27.2176 6.18074 25.1139 6.18074M24.9455 10.2971H23.5168V8.1H24.9455C25.7139 8.1 26.1738 8.43812 26.1738 9.15984C26.1738 9.94303 25.7287 10.2971 24.9455 10.2971ZM35.6201 3.35533V0.145082H33.4082V3.35533C30.8742 3.57049 29.1689 5.36803 29.1689 7.87131C29.1689 10.3746 30.8742 12.1881 33.4082 12.4033V15.6602H35.6201V12.4033C38.1541 12.2041 39.8594 10.3906 39.8594 7.87131C39.8594 5.35205 38.1541 3.55451 35.6201 3.35533ZM33.4082 10.3143C32.1799 10.1447 31.4115 9.22377 31.4115 7.87254C31.4115 6.52131 32.1799 5.59918 33.4082 5.43074V10.3156V10.3143ZM35.6201 10.3143V5.42951C36.8484 5.59795 37.6168 6.52008 37.6168 7.87131C37.6168 9.22254 36.8484 10.1447 35.6201 10.3131M48.1549 9.5459V6.64303C48.1549 4.52336 46.8037 3.18689 44.5303 3.18689C42.257 3.18689 40.9365 4.60082 40.8283 6.075H43.0709C43.1471 5.75287 43.4852 5.19959 44.5303 5.19959C45.391 5.19959 45.943 5.59918 45.943 6.64303H43.7459C41.7799 6.64303 40.6119 7.67213 40.6119 9.39221C40.6119 11.1123 41.8894 12.418 43.7299 12.418C45.0799 12.418 45.8299 11.7799 46.157 11.2967C46.4484 11.8807 47.0939 12.2029 47.9385 12.2029H48.707V10.2061C48.3074 10.2061 48.1537 10.0217 48.1537 9.5459M45.9418 8.97787C45.9418 9.97623 45.2348 10.5443 44.3139 10.5443C43.5148 10.5443 42.8852 10.2529 42.8852 9.39221C42.8852 8.53156 43.5762 8.40984 44.175 8.40984H45.9418V8.97787ZM57.6332 4.78402H55.1607V2.34221H60.8902V0.145082H52.8418V12.2029H57.6344C60.2914 12.2029 61.8123 10.8824 61.8123 8.45533C61.8123 6.16721 60.2914 4.78402 57.6344 4.78402M57.5275 10.0217H55.1619V6.88771H57.5275C58.7557 6.88771 59.448 7.45574 59.448 8.4541C59.448 9.45246 58.757 10.0205 57.5275 10.0205M70.275 9.5459V6.64303C70.275 4.52336 68.9238 3.18689 66.6504 3.18689C64.3771 3.18689 63.0566 4.60082 62.9484 6.075H65.191C65.2672 5.75287 65.6053 5.19959 66.6504 5.19959C67.5111 5.19959 68.0631 5.59918 68.0631 6.64303H65.866C63.9 6.64303 62.732 7.67213 62.732 9.39221C62.732 11.1123 64.0094 12.418 65.85 12.418C67.2 12.418 67.95 11.7799 68.2771 11.2967C68.5685 11.8807 69.2139 12.2029 70.0586 12.2029H70.8271V10.2061C70.4275 10.2061 70.2738 10.0217 70.2738 9.5459M68.0619 8.97787C68.0619 9.97623 67.3549 10.5443 66.434 10.5443C65.6348 10.5443 65.0053 10.2529 65.0053 9.39221C65.0053 8.53156 65.6963 8.40984 66.2951 8.40984H68.0619V8.97787ZM0 15.5422H11.8279V18H0V15.5422ZM8.06434 1.8C7.72623 0.794262 7.33771 0 6.00615 0C4.67459 0 4.26025 0.790574 3.90615 1.8L0.245902 12.2029H2.67295L3.51762 9.73033H8.18729L8.97049 12.2029H11.5512L8.06434 1.8ZM4.22459 7.64139L5.8832 2.71107H5.94467L7.51107 7.64139H4.22336H4.22459ZM86.5094 3.55574L83.4529 6.98115V3.55574H81.241V12.2029H83.4529V8.56229L86.7246 12.2029H89.582L85.5578 7.67213L89.2906 3.55574H86.5094ZM77.341 6.78074H74.2844V3.55574H72.0713V12.2029H74.2844V8.79344H77.341V12.2029H79.5529V3.55574H77.341V6.78074Z" fill="#EA2119"/>
</g>
<defs>
<clipPath id="clip0_1590_18619">
<rect width="89.582" height="18" fill="white"/>
</clipPath>
</defs>
</svg>
