<svg width="70" height="70" viewBox="0 0 70 70" fill="none" xmlns="http://www.w3.org/2000/svg">
<path d="M64 30H6V57C6 59.3869 6.9166 61.6761 8.54817 63.364C10.1797 65.0518 12.3926 66 14.7 66H55.3C57.6074 66 59.8203 65.0518 61.4518 63.364C63.0834 61.6761 64 59.3869 64 57V30ZM20.5 24C19.7309 24 18.9932 23.6839 18.4494 23.1213C17.9055 22.5587 17.6 21.7956 17.6 21V9C17.6 8.20435 17.9055 7.44129 18.4494 6.87868C18.9932 6.31607 19.7309 6 20.5 6C21.2691 6 22.0068 6.31607 22.5506 6.87868C23.0945 7.44129 23.4 8.20435 23.4 9V21C23.4 21.7956 23.0945 22.5587 22.5506 23.1213C22.0068 23.6839 21.2691 24 20.5 24ZM49.5 24C48.7309 24 47.9932 23.6839 47.4494 23.1213C46.9055 22.5587 46.6 21.7956 46.6 21V9C46.6 8.20435 46.9055 7.44129 47.4494 6.87868C47.9932 6.31607 48.7309 6 49.5 6C50.2691 6 51.0068 6.31607 51.5506 6.87868C52.0945 7.44129 52.4 8.20435 52.4 9V21C52.4 21.7956 52.0945 22.5587 51.5506 23.1213C51.0068 23.6839 50.2691 24 49.5 24Z" fill="url(#paint0_linear_1653_13981)"/>
<path d="M55.3 12H52.4V21C52.4 21.7956 52.0945 22.5587 51.5506 23.1213C51.0068 23.6839 50.2691 24 49.5 24C48.7309 24 47.9932 23.6839 47.4494 23.1213C46.9055 22.5587 46.6 21.7956 46.6 21V12H23.4V21C23.4 21.7956 23.0945 22.5587 22.5506 23.1213C22.0068 23.6839 21.2691 24 20.5 24C19.7309 24 18.9932 23.6839 18.4494 23.1213C17.9055 22.5587 17.6 21.7956 17.6 21V12H14.7C12.3926 12 10.1797 12.9482 8.54817 14.636C6.9166 16.3239 6 18.6131 6 21V30H64V21C64 18.6131 63.0834 16.3239 61.4518 14.636C59.8203 12.9482 57.6074 12 55.3 12Z" fill="#3763C5"/>
<path d="M30.5 45C29.5333 45 28.7083 44.6583 28.025 43.975C27.3417 43.2917 27 42.4667 27 41.5C27 40.5333 27.3417 39.7083 28.025 39.025C28.7083 38.3417 29.5333 38 30.5 38C31.4667 38 32.2917 38.3417 32.975 39.025C33.6583 39.7083 34 40.5333 34 41.5C34 42.4667 33.6583 43.2917 32.975 43.975C32.2917 44.6583 31.4667 45 30.5 45ZM30.5 43C30.9167 43 31.271 42.8543 31.563 42.563C31.855 42.2717 32.0007 41.9173 32 41.5C31.9993 41.0827 31.8537 40.7287 31.563 40.438C31.2723 40.1473 30.918 40.0013 30.5 40C30.082 39.9987 29.728 40.1447 29.438 40.438C29.148 40.7313 29.002 41.0853 29 41.5C28.998 41.9147 29.144 42.269 29.438 42.563C29.732 42.857 30.086 43.0027 30.5 43ZM39.5 54C38.5333 54 37.7083 53.6583 37.025 52.975C36.3417 52.2917 36 51.4667 36 50.5C36 49.5333 36.3417 48.7083 37.025 48.025C37.7083 47.3417 38.5333 47 39.5 47C40.4667 47 41.2917 47.3417 41.975 48.025C42.6583 48.7083 43 49.5333 43 50.5C43 51.4667 42.6583 52.2917 41.975 52.975C41.2917 53.6583 40.4667 54 39.5 54ZM40.563 51.563C40.8543 51.271 41 50.9167 41 50.5C41 50.0833 40.8543 49.7293 40.563 49.438C40.2717 49.1467 39.9173 49.0007 39.5 49C39.0827 48.9993 38.7287 49.1453 38.438 49.438C38.1473 49.7307 38.0013 50.0847 38 50.5C37.9987 50.9153 38.1447 51.2697 38.438 51.563C38.7313 51.8563 39.0853 52.002 39.5 52C39.9147 51.998 40.269 51.8523 40.563 51.563ZM27.425 52.6C27.425 52.3167 27.5167 52.0833 27.7 51.9L40.9 38.7C41.0833 38.5167 41.3167 38.425 41.6 38.425C41.8833 38.425 42.1167 38.5167 42.3 38.7C42.4833 38.8833 42.575 39.1167 42.575 39.4C42.575 39.6833 42.4833 39.9167 42.3 40.1L29.1 53.3C28.9167 53.4833 28.6833 53.575 28.4 53.575C28.1167 53.575 27.8833 53.4833 27.7 53.3C27.5167 53.1167 27.425 52.8833 27.425 52.6Z" fill="white"/>
<defs>
<linearGradient id="paint0_linear_1653_13981" x1="10.7377" y1="6" x2="80.2118" y2="28.1565" gradientUnits="userSpaceOnUse">
<stop stop-color="#81A8E4"/>
<stop offset="1" stop-color="#3865CD"/>
</linearGradient>
</defs>
</svg>
