<svg width="200" height="24" viewBox="0 0 200 24" fill="none" xmlns="http://www.w3.org/2000/svg">
<g clip-path="url(#clip0_1530_45014)">
<path d="M2.45222 11.5658C2.39458 11.3353 2.42341 11.1623 2.45222 11.047C2.50986 10.8742 2.62512 10.7013 2.85566 10.586C2.85566 10.586 3.97953 10.1825 4.90168 8.77052C5.96791 7.12792 7.43757 5.45654 10.8092 5.45654V6.29222C10.8092 6.29222 10.8668 7.0415 10.1464 7.12792C9.3107 7.24322 7.63929 7.8772 6.54424 9.69265C5.70856 11.1335 4.61351 11.3353 4.61351 11.3353L10.8668 17.6462C9.40673 17.6462 8.52301 17.5982 8.21566 17.5021C7.85062 17.4061 7.37035 17.0314 6.77478 16.3782L2.65394 11.9692C2.53867 11.8347 2.47143 11.7002 2.45222 11.5658Z" fill="black"/>
<path fill-rule="evenodd" clip-rule="evenodd" d="M21.4975 12.7173C21.4975 16.0601 20.0758 17.7315 17.2326 17.7315C15.5227 17.7315 14.3797 17.2897 13.8033 16.4059V21.3336C12.7659 21.3336 12.1607 21.2664 11.9879 21.1319C11.8149 20.9975 11.7285 20.5076 11.7285 19.6623V7.81842C12.5161 7.81842 12.9772 7.88564 13.1117 8.02015C13.2462 8.13538 13.3134 8.53883 13.3134 9.23043C13.9282 8.21227 15.2154 7.70312 17.1749 7.70312C20.0566 7.70312 21.4975 9.37454 21.4975 12.7173ZM19.365 12.7173C19.365 11.6222 19.2017 10.8154 18.8752 10.2967C18.4141 9.68189 17.6648 9.37454 16.6274 9.37454C15.2058 9.37454 14.3701 9.51864 14.1203 9.80679C13.8898 10.0949 13.7745 11.0652 13.7745 12.7173C13.7745 13.8123 13.9378 14.6096 14.2644 15.1092C14.7062 15.7432 15.4747 16.0601 16.5698 16.0601C17.9722 16.0601 18.7983 15.9256 19.048 15.6567C19.2593 15.3685 19.365 14.3887 19.365 12.7173Z" fill="black"/>
<path fill-rule="evenodd" clip-rule="evenodd" d="M31.9306 11.9105C31.9306 12.7173 31.8441 13.188 31.6712 13.3225C31.4791 13.457 30.8451 13.5242 29.7693 13.5242H24.4958C24.4958 14.2543 24.7359 14.8402 25.2162 15.282C25.6965 15.7432 26.3881 15.9737 27.291 15.9737H29.5099C30.336 15.9737 30.8163 16.0409 30.9508 16.1753C31.1045 16.3099 31.1813 16.7901 31.1813 17.6162H27.3774C24.0347 17.597 22.3633 15.9544 22.3633 12.6885C22.3633 9.36493 24.0539 7.70312 27.4351 7.70312C28.8951 7.70312 30.0287 8.10657 30.8355 8.91347C31.5656 9.66269 31.9306 10.6617 31.9306 11.9105ZM29.7693 11.9105C29.7981 10.1238 28.9624 9.28804 27.2334 9.28804C25.8886 9.28804 25.0913 9.39374 24.8416 9.60507C24.6111 9.8356 24.4958 10.6041 24.4958 11.9105H29.7693Z" fill="black"/>
<path fill-rule="evenodd" clip-rule="evenodd" d="M42.7923 17.5606V18.1369C42.7923 18.963 42.7154 19.4432 42.5617 19.5777C42.3696 19.7122 41.7644 19.7795 40.7462 19.7795V17.5894H34.1759V19.7795C33.1577 19.7795 32.5525 19.7122 32.3604 19.5777C32.2068 19.4432 32.1299 18.963 32.1299 18.1369V17.5894C32.1299 16.7537 32.1875 16.2926 32.3316 16.1773C32.4277 16.0813 32.7062 16.014 33.1673 15.9756C34.4929 14.7653 34.8675 11.3361 34.8675 9.4053L34.8963 9.20357C34.8963 8.4927 34.9636 8.07965 35.0981 7.96442C35.2326 7.82991 35.7128 7.7627 36.5389 7.7627H40.0546C40.8615 7.7627 41.3322 7.82991 41.4667 7.96442C41.6011 8.09893 41.6779 8.52158 41.6972 9.23238V15.9756C42.1967 15.9948 42.4944 16.062 42.5905 16.1773C42.725 16.3118 42.7923 16.7729 42.7923 17.5606ZM39.6224 15.3416V9.4053H36.7118C36.7118 10.0104 36.6542 11.0766 36.5101 12.2294C36.3372 13.382 36.0202 14.7941 35.415 15.9756H38.8443C38.8635 15.9564 38.902 15.9468 38.9596 15.9468C39.4783 15.9468 39.5936 15.6586 39.6224 15.4857C39.6224 15.3992 39.6224 15.3416 39.6224 15.3416Z" fill="black"/>
<path d="M2.24869 17.6474C1.17285 17.6474 0.538874 17.5705 0.346759 17.4168C0.173856 17.2823 0.0874023 16.7829 0.0874023 15.9183V5.48651C1.16325 5.4673 1.79722 5.52492 1.98934 5.65941C2.16224 5.79389 2.24869 6.24537 2.24869 7.01379V11.1058V11.5669V17.6474Z" fill="black"/>
<path d="M43.8315 17.5894V7.7627C44.9074 7.7819 45.5318 7.84912 45.7047 7.96442C45.8968 8.07965 45.9928 8.50231 45.9928 9.23238V14.967L49.7967 9.00185C50.2194 8.38707 50.5363 8.03164 50.7477 7.93561C50.9398 7.83952 51.4489 7.7819 52.275 7.7627H53.3988V15.8892C53.3988 16.7345 53.3124 17.2243 53.1395 17.3588C52.9666 17.5125 52.3326 17.5894 51.2375 17.5894V10.3274L47.4337 16.2349C46.9726 16.9073 46.646 17.3012 46.4539 17.4165C46.2426 17.5317 45.7623 17.5894 45.0131 17.5894H43.8315Z" fill="black"/>
<path d="M63.8314 7.79004C63.8314 8.67376 63.7641 9.1829 63.6297 9.31734C63.4952 9.47105 62.9861 9.54787 62.1024 9.54787H60.2293V17.5879C59.1726 17.5879 58.5483 17.511 58.3561 17.3574C58.1832 17.2229 58.0968 16.733 58.0968 15.8877V9.54787H54.4658C54.4658 8.66416 54.533 8.15508 54.6675 8.02057C54.8021 7.86686 55.2631 7.79004 56.0508 7.79004H63.8314Z" fill="black"/>
<path d="M89.2519 11.3637C89.2519 17.5882 84.1882 22.66 77.9552 22.66C71.7229 22.66 66.6587 17.5882 66.6587 11.3637C66.6587 5.13921 71.7229 0.0673828 77.9552 0.0673828C84.1882 0.0673828 89.2519 5.13921 89.2519 11.3637Z" fill="white"/>
<path fill-rule="evenodd" clip-rule="evenodd" d="M67.4614 11.3639C67.4614 5.5717 72.1356 0.874512 77.9514 0.874512C83.7387 0.874512 88.4406 5.5717 88.4406 11.3639C88.4406 17.1562 83.7387 21.8534 77.9514 21.8534C72.1356 21.8534 67.4614 17.1562 67.4614 11.3639ZM72.7476 11.3639L77.9514 16.551L83.1267 11.3639L77.9514 6.17686L72.7476 11.3639Z" fill="#FF3333"/>
<path fill-rule="evenodd" clip-rule="evenodd" d="M105.214 17.5877C104.387 17.5877 103.898 17.53 103.744 17.4147C103.61 17.2994 103.542 16.896 103.542 16.2044V9.11536C103.542 8.40456 103.61 7.99151 103.744 7.87621C103.898 7.76098 104.387 7.70336 105.214 7.70336H109.45C111.986 7.70336 113.254 8.56788 113.254 10.2969C113.254 11.3727 112.86 12.0355 112.072 12.2853L111.928 12.3429L112.072 12.4005C112.514 12.5542 112.879 12.8424 113.167 13.2651C113.436 13.6877 113.571 14.168 113.571 14.7059C113.571 16.627 112.216 17.5877 109.507 17.5877H105.214ZM109.507 9.28828H105.473V11.7377H109.594C110.602 11.7377 111.092 11.6801 111.207 11.6225C111.266 11.5649 111.381 11.2478 111.381 10.5274C111.381 9.72054 110.833 9.28828 109.507 9.28828ZM111.611 14.6771C111.611 13.8414 111.006 13.3803 109.594 13.3803H105.473V16.0603H109.565C110.689 16.0603 111.266 15.9739 111.41 15.8874C111.495 15.8298 111.611 15.484 111.611 14.6771ZM124.521 12.6311C124.521 15.9739 123.099 17.6453 120.256 17.6453C118.547 17.6453 117.403 17.2034 116.827 16.3197V21.2474C115.79 21.2474 115.184 21.1705 115.011 21.0168C114.839 20.9016 114.752 20.4213 114.752 19.576V7.73217C115.54 7.73217 116.001 7.79939 116.135 7.93389C116.27 8.02992 116.337 8.43337 116.337 9.14417C116.952 8.12602 118.239 7.61687 120.199 7.61687C123.08 7.61687 124.521 9.28828 124.521 12.6311ZM122.388 12.6311C122.388 11.536 122.216 10.7292 121.87 10.2104C121.428 9.59564 120.688 9.28828 119.651 9.28828C118.23 9.28828 117.394 9.42279 117.144 9.69173C116.914 9.97988 116.798 10.9597 116.798 12.6311C116.798 13.7262 116.962 14.5138 117.288 14.9941C117.73 15.628 118.499 15.9451 119.594 15.9451C121.015 15.9451 121.831 15.8105 122.043 15.5416C122.273 15.2727 122.388 14.3024 122.388 12.6311ZM135.673 12.6022C135.673 15.9258 134.002 17.5877 130.659 17.5877C127.336 17.5877 125.674 15.9258 125.674 12.6022C125.674 9.29788 127.345 7.64568 130.688 7.64568C134.012 7.64568 135.673 9.29788 135.673 12.6022ZM133.541 12.6022C133.541 11.5649 133.359 10.7868 132.993 10.268C132.552 9.61484 131.783 9.28828 130.688 9.28828C129.247 9.28828 128.402 9.43239 128.152 9.72054C127.922 9.98948 127.807 10.9501 127.807 12.6022C127.807 14.8308 128.757 15.9451 130.659 15.9451C132.1 15.9451 132.936 15.8105 133.166 15.5416C133.416 15.2535 133.541 14.2736 133.541 12.6022ZM145.904 17.2706C145.73 17.4051 145.097 17.4724 144.001 17.4724V9.74935H138.959V17.4724C137.883 17.4724 137.249 17.4051 137.057 17.2706C136.884 17.1169 136.797 16.627 136.797 15.8009V9.57643C136.797 8.63509 136.874 8.08754 137.028 7.93389C137.162 7.76098 137.672 7.67449 138.555 7.67449H144.434C145.298 7.67449 145.808 7.76098 145.961 7.93389C146.096 8.08754 146.173 8.63509 146.192 9.57643V15.8009C146.192 16.627 146.096 17.1169 145.904 17.2706ZM156.71 17.4724C155.922 17.4724 155.461 17.4147 155.326 17.2994C155.193 17.165 155.125 16.7327 155.125 16.0027C154.875 16.4253 154.424 16.7808 153.77 17.0689C153.041 17.4147 152.186 17.5877 151.206 17.5877C150.073 17.5877 149.15 17.3475 148.44 16.8672C147.671 16.3485 147.287 15.5992 147.287 14.6195C147.287 13.6589 147.613 12.8904 148.266 12.3141C148.977 11.6993 150.044 11.392 151.465 11.392H154.635C154.635 10.6811 154.414 10.172 153.973 9.86465C153.55 9.57643 152.858 9.43239 151.897 9.43239H149.822C149.054 9.43239 148.602 9.3651 148.468 9.23067C148.334 9.09616 148.266 8.61589 148.266 7.78979H151.811C153.694 7.78979 155.01 8.15482 155.759 8.88483C156.393 9.51881 156.71 10.537 156.71 11.9394V17.4724ZM154.635 13.2939V12.9769H151.782C150.61 12.9769 149.929 13.0441 149.736 13.1786C149.544 13.3131 149.448 13.7838 149.448 14.5907C149.448 15.532 150.207 16.0027 151.725 16.0027C153.185 16.0027 154.03 15.8874 154.261 15.6569C154.51 15.4263 154.635 14.6387 154.635 13.2939ZM102.217 17.5877H95.5597C94.4838 17.5877 93.8502 17.5204 93.6581 17.3859C93.485 17.2322 93.3984 16.7231 93.3984 15.8586V7.09819C93.3984 6.21447 93.485 5.70535 93.6581 5.57086C93.8502 5.41717 94.4838 5.34033 95.5597 5.34033H100.43C101.333 5.34033 101.852 5.41717 101.986 5.57086C102.14 5.70535 102.217 6.21447 102.217 7.09819H95.5597V10.4986H99.8248C100.709 10.4986 101.227 10.5658 101.381 10.7003C101.534 10.854 101.611 11.3535 101.611 12.1988H95.5597V15.8586H100.286C101.266 15.8586 101.823 15.9258 101.957 16.0603C102.13 16.1948 102.217 16.7039 102.217 17.5877Z" fill="black"/>
<path fill-rule="evenodd" clip-rule="evenodd" d="M193.189 17.5598C192.094 17.5598 191.46 17.4829 191.287 17.3292C191.095 17.1948 190.999 16.6856 190.999 15.8019V7.64666C192.094 7.64666 192.728 7.70434 192.901 7.81958C193.093 7.95408 193.189 8.40554 193.189 9.17396V17.5598ZM200.278 17.531C199.096 17.531 198.175 17.5021 197.915 17.4157C197.627 17.3388 197.243 17.0411 196.763 16.5224L193.592 13.0067C193.477 12.8626 193.391 12.6609 193.391 12.488C193.391 12.4592 193.362 11.9692 193.736 11.7676C193.736 11.7676 194.716 11.3641 195.552 10.1826C196.475 8.88581 197.569 7.70434 200.278 7.70434V8.45356C200.278 8.45356 200.336 9.26046 199.759 9.34688C199.096 9.43337 198.175 9.60622 196.907 11.3064C196.186 12.2286 195.667 12.4592 195.667 12.4592L200.278 17.531ZM178.723 17.5021C177.935 17.5021 177.474 17.4349 177.339 17.3004C177.205 17.166 177.138 16.7337 177.138 16.0036C176.888 16.4455 176.437 16.8105 175.783 17.0987C175.054 17.4253 174.198 17.5886 173.219 17.5886C172.085 17.5886 171.163 17.3484 170.453 16.8682C169.684 16.3495 169.3 15.6098 169.3 14.6493C169.3 13.6694 169.626 12.901 170.279 12.3439C170.99 11.7099 172.057 11.3929 173.478 11.3929H176.648C176.648 10.6821 176.427 10.1826 175.985 9.89444C175.562 9.58702 174.861 9.43337 173.882 9.43337H171.836C171.048 9.43337 170.597 9.36609 170.481 9.23165C170.346 9.09714 170.279 8.61687 170.279 7.79077H173.824C175.706 7.79077 177.022 8.16541 177.772 8.91462C178.406 9.5294 178.723 10.538 178.723 11.9404V17.5021ZM176.648 13.3237V13.0067H173.795C172.623 13.0067 171.941 13.0835 171.749 13.2372C171.557 13.3525 171.461 13.8232 171.461 14.6493C171.461 15.5714 172.22 16.0325 173.738 16.0325C175.198 16.0325 176.053 15.9268 176.302 15.7155C176.533 15.4658 176.648 14.6685 176.648 13.3237ZM168.522 13.9577C168.522 16.3399 166.841 17.531 163.478 17.531H160.539C159.521 17.531 158.916 17.4637 158.724 17.3292C158.57 17.1756 158.493 16.676 158.493 15.8307V7.01268C158.493 6.1674 158.57 5.6679 158.724 5.51421C158.916 5.37973 159.521 5.3125 160.539 5.3125H167.773C167.773 5.3125 167.714 6.29227 167.629 6.55161C167.542 6.83983 167.398 7.01268 166.793 7.01268H160.654V10.4419H163.94C166.245 10.4419 167.34 11.3929 167.801 11.9116C167.878 12.0077 167.945 12.0941 168.003 12.171L168.089 12.3439C168.377 12.8914 168.522 13.4101 168.522 13.9577ZM166.302 13.9577C166.302 12.7473 165.409 12.1421 163.622 12.1421H160.654V15.8307H163.565C164.929 15.8307 165.726 15.7443 165.957 15.5714C166.188 15.4177 166.302 14.8798 166.302 13.9577ZM189.53 17.5021C188.434 17.5021 187.8 17.4349 187.627 17.3004C187.435 17.1468 187.339 16.6376 187.339 15.7731V13.0932H182.325V17.5021C181.249 17.5021 180.625 17.4349 180.452 17.3004C180.26 17.1468 180.163 16.6376 180.163 15.7731V7.67547C181.259 7.67547 181.893 7.75236 182.066 7.90607C182.239 8.04051 182.325 8.53045 182.325 9.37569V11.4217H187.339V7.67547C188.454 7.67547 189.097 7.75236 189.27 7.90607C189.443 8.04051 189.53 8.53045 189.53 9.37569V17.5021Z" fill="#FF3333"/>
</g>
<defs>
<clipPath id="clip0_1530_45014">
<rect width="200" height="23.6686" fill="white"/>
</clipPath>
</defs>
</svg>
