<svg width="70" height="40" viewBox="0 0 70 40" fill="none" xmlns="http://www.w3.org/2000/svg">
<rect width="70" height="40" rx="8" fill="url(#paint0_linear_1596_826)"/>
<rect x="14" width="42" height="40" fill="#3763C5"/>
<path d="M22.86 27.7C21.9933 27.6467 21.2467 27.4933 20.62 27.24C19.9933 26.9733 19.48 26.6333 19.08 26.22C18.6667 25.82 18.3533 25.3467 18.14 24.8C17.9267 24.2533 17.8 23.6667 17.76 23.04H20.72C20.76 23.3333 20.8133 23.6067 20.88 23.86C20.96 24.1133 21.08 24.34 21.24 24.54C21.4 24.7533 21.6067 24.9333 21.86 25.08C22.1267 25.2267 22.46 25.3267 22.86 25.38V21.52C22.06 21.4 21.3667 21.2333 20.78 21.02C20.1933 20.7933 19.7067 20.5067 19.32 20.16C18.9333 19.8267 18.64 19.42 18.44 18.94C18.2533 18.46 18.16 17.8867 18.16 17.22C18.16 16.6467 18.2667 16.1133 18.48 15.62C18.7067 15.1267 19.0267 14.6933 19.44 14.32C19.8533 13.96 20.3467 13.6667 20.92 13.44C21.4933 13.2133 22.14 13.0733 22.86 13.02V11.24H24.28V13.04C25.6533 13.16 26.7333 13.5667 27.52 14.26C28.3067 14.94 28.76 15.9267 28.88 17.22H26.02C25.9267 16.7 25.7467 16.2867 25.48 15.98C25.2133 15.66 24.8133 15.4467 24.28 15.34V18.92C25.0267 19.04 25.7 19.2 26.3 19.4C26.9 19.5867 27.4133 19.84 27.84 20.16C28.2533 20.4933 28.5667 20.9067 28.78 21.4C29.0067 21.88 29.12 22.4667 29.12 23.16C29.12 23.76 29.0133 24.3267 28.8 24.86C28.6 25.38 28.3 25.84 27.9 26.24C27.4867 26.6533 26.9733 26.9867 26.36 27.24C25.76 27.4933 25.0667 27.6467 24.28 27.7V30.2H22.86V27.7ZM26.16 23.5C26.16 23.02 26.0267 22.6467 25.76 22.38C25.5067 22.1133 25.0133 21.9 24.28 21.74V25.38C24.8667 25.2733 25.3267 25.06 25.66 24.74C25.9933 24.4067 26.16 23.9933 26.16 23.5ZM21.04 16.96C21.04 17.1867 21.0667 17.3933 21.12 17.58C21.1733 17.7533 21.2667 17.9067 21.4 18.04C21.5333 18.1867 21.7133 18.3133 21.94 18.42C22.18 18.5133 22.4867 18.6 22.86 18.68V15.3C22.26 15.38 21.8067 15.5733 21.5 15.88C21.1933 16.1733 21.04 16.5333 21.04 16.96ZM36.0805 11.98H38.4605L32.3005 30.46H29.9405L36.0805 11.98ZM39.0455 18.46H40.3855C40.4921 17.6733 40.6988 16.9467 41.0055 16.28C41.3255 15.6133 41.7388 15.0333 42.2455 14.54C42.7521 14.06 43.3455 13.6867 44.0255 13.42C44.7055 13.14 45.4588 13 46.2855 13C47.8988 13 49.1721 13.42 50.1055 14.26C51.0521 15.0867 51.6055 16.2933 51.7655 17.88H48.7455C48.6388 17.0933 48.3721 16.4933 47.9455 16.08C47.5321 15.6667 46.9721 15.46 46.2655 15.46C45.4655 15.46 44.8388 15.7333 44.3855 16.28C43.9455 16.8133 43.6588 17.54 43.5255 18.46H47.2455L47.0055 19.78H43.4655V21.02H46.7855L46.5455 22.34H43.5255C43.6588 23.26 43.9455 23.9667 44.3855 24.46C44.8255 24.9533 45.4588 25.2 46.2855 25.2C47.0455 25.2 47.6388 24.98 48.0655 24.54C48.5055 24.0867 48.7855 23.4133 48.9055 22.52H51.8855C51.6988 24.1733 51.1321 25.4533 50.1855 26.36C49.2388 27.2667 47.9188 27.72 46.2255 27.72C45.3721 27.72 44.6055 27.5867 43.9255 27.32C43.2455 27.0533 42.6655 26.68 42.1855 26.2C41.6921 25.7333 41.2921 25.1733 40.9855 24.52C40.6788 23.8533 40.4788 23.1267 40.3855 22.34H39.0455V21.02H40.3055V19.78H39.0455V18.46Z" fill="white"/>
<defs>
<linearGradient id="paint0_linear_1596_826" x1="5.71797" y1="-4.45805e-07" x2="75" y2="40" gradientUnits="userSpaceOnUse">
<stop stop-color="#81A8E4"/>
<stop offset="1" stop-color="#3865CD"/>
</linearGradient>
</defs>
</svg>
