<svg width="58" height="22" viewBox="0 0 58 22" fill="none" xmlns="http://www.w3.org/2000/svg">
<g clip-path="url(#clip0_1590_18635)">
<path fill-rule="evenodd" clip-rule="evenodd" d="M10.3747 18.8V19.3963H12.8364C12.8178 19.578 12.7759 19.7567 12.7119 19.9278C12.6193 20.1651 12.4885 20.3714 12.3194 20.5467C12.1522 20.7179 11.9524 20.8539 11.7318 20.9467C11.5041 21.044 11.2572 21.0924 10.9913 21.092C10.7137 21.094 10.4382 21.0447 10.1785 20.9467C9.92306 20.8443 9.69279 20.6879 9.50342 20.4882L9.04605 20.9467C9.28116 21.2097 9.57462 21.4139 9.90289 21.543C10.2614 21.6824 10.6432 21.7518 11.0278 21.7474C11.3756 21.7513 11.7208 21.6869 12.0438 21.5581C12.3538 21.4273 12.6224 21.2453 12.8497 21.0121C13.0817 20.7748 13.2608 20.4982 13.387 20.1825C13.5197 19.8519 13.5862 19.4984 13.5827 19.1421C13.5827 18.7639 13.5175 18.4169 13.387 18.1012C13.2657 17.7935 13.0829 17.5137 12.8497 17.2791C12.6228 17.0421 12.3481 16.856 12.0438 16.7331C11.7217 16.6002 11.3762 16.5333 11.0278 16.5363C10.6214 16.5363 10.2464 16.6044 9.90289 16.7407C9.57462 16.8698 9.28116 17.074 9.04605 17.337L9.50342 17.7955C9.70644 17.5871 9.93146 17.4343 10.1785 17.337C10.4382 17.239 10.7137 17.1897 10.9913 17.1917C11.2576 17.1917 11.5045 17.2401 11.7318 17.337C11.9538 17.4306 12.1539 17.5694 12.3194 17.7446C12.4892 17.9144 12.6201 18.1207 12.7119 18.3635C12.7652 18.5016 12.803 18.6471 12.8254 18.8H10.3747ZM20.9318 21.5581C21.2751 21.6874 21.6395 21.7516 22.0064 21.7474C22.4031 21.7474 22.7659 21.6795 23.0948 21.5436C23.4206 21.4134 23.7116 21.209 23.9447 20.9467L23.4728 20.4882C23.2791 20.6966 23.0612 20.852 22.8192 20.9543C22.5721 21.0517 22.3085 21.1011 22.0428 21.0996C21.7572 21.0996 21.4909 21.0511 21.2439 20.9543C21.0086 20.8615 20.7941 20.723 20.6128 20.5467C20.4331 20.3701 20.2901 20.1598 20.1919 19.9278C20.0933 19.6777 20.044 19.4109 20.0466 19.1421C20.0466 18.8604 20.0949 18.6008 20.1914 18.3635C20.2874 18.1281 20.4309 17.9151 20.6128 17.7376C20.7919 17.5628 21.0023 17.4269 21.2439 17.33C21.4985 17.2309 21.7697 17.1814 22.0428 17.1841C22.3184 17.1841 22.5772 17.2351 22.8192 17.337C23.0612 17.4343 23.2791 17.5848 23.4728 17.7886L23.9447 17.33C23.7124 17.0689 23.4213 16.8669 23.0954 16.7407C22.7517 16.602 22.3839 16.5327 22.0133 16.5369C21.6266 16.5369 21.2686 16.6025 20.9394 16.7337C20.622 16.8556 20.3329 17.0412 20.0901 17.2791C19.8477 17.5121 19.6551 17.7917 19.5238 18.1012C19.3854 18.4306 19.3163 18.7849 19.3206 19.1421C19.3206 19.5204 19.3884 19.8672 19.5238 20.1825C19.6593 20.4982 19.8455 20.7748 20.0825 21.0121C20.3282 21.2466 20.6165 21.4319 20.9318 21.5581ZM42.0356 21.5581C42.3788 21.6873 42.7429 21.7515 43.1096 21.7474C43.5071 21.7474 43.8699 21.6795 44.198 21.5436C44.5238 21.4134 44.8148 21.209 45.0479 20.9467L44.5761 20.4882C44.3827 20.6966 44.1648 20.852 43.9224 20.9543C43.6753 21.0517 43.4117 21.1011 43.1461 21.0996C42.8604 21.0996 42.5941 21.0511 42.3471 20.9543C42.1119 20.8615 41.8974 20.723 41.7161 20.5467C41.5363 20.3701 41.3933 20.1598 41.2952 19.9278C41.1965 19.6777 41.1472 19.4109 41.1498 19.1421C41.1498 18.8604 41.1981 18.6008 41.2946 18.3635C41.3907 18.1281 41.5341 17.9151 41.7161 17.7376C41.8955 17.5628 42.1059 17.4269 42.3471 17.33C42.6017 17.2309 42.8729 17.1814 43.1461 17.1841C43.4216 17.1841 43.6804 17.2351 43.9224 17.337C44.1644 17.4343 44.3823 17.5848 44.5761 17.7886L45.0479 17.33C44.8156 17.0689 44.5245 16.8669 44.1986 16.7407C43.8551 16.6021 43.4875 16.5328 43.1171 16.5369C42.73 16.5369 42.3718 16.6025 42.0426 16.7337C41.7252 16.8556 41.4362 17.0412 41.1933 17.2791C40.951 17.5121 40.7584 17.7917 40.6271 18.1012C40.4889 18.4306 40.4199 18.7849 40.4244 19.1421C40.4244 19.5204 40.492 19.8672 40.6271 20.1825C40.7625 20.4982 40.9489 20.7748 41.1863 21.0121C41.432 21.2466 41.7203 21.4319 42.0356 21.5581ZM47.139 21.5581C47.4824 21.6874 47.8468 21.7516 48.2136 21.7474C48.6104 21.7474 48.9732 21.6795 49.302 21.5436C49.6276 21.4133 49.9184 21.209 50.1513 20.9467L49.6795 20.4882C49.4861 20.6966 49.2684 20.852 49.0264 20.9543C48.7791 21.0518 48.5154 21.1011 48.2495 21.0996C47.9639 21.0996 47.6977 21.0511 47.4511 20.9543C47.2159 20.8615 47.0014 20.723 46.8201 20.5467C46.6401 20.3702 46.4969 20.1599 46.3986 19.9278C46.3001 19.6777 46.251 19.4109 46.2538 19.1421C46.2538 18.8604 46.3021 18.6008 46.3986 18.3635C46.5005 18.1203 46.6408 17.9117 46.8195 17.7376C46.9989 17.5628 47.2095 17.4269 47.4511 17.33C47.7057 17.2309 47.9769 17.1814 48.2501 17.1841C48.5256 17.1841 48.7842 17.2351 49.0258 17.337C49.2682 17.4343 49.4863 17.5848 49.68 17.7886L50.1513 17.33C49.919 17.0689 49.6279 16.8669 49.302 16.7407C48.9585 16.6021 48.5909 16.5328 48.2205 16.5369C47.8334 16.5369 47.4752 16.6025 47.146 16.7337C46.8288 16.8557 46.54 17.0413 46.2973 17.2791C46.055 17.5121 45.8623 17.7917 45.7311 18.1012C45.5925 18.4305 45.5231 18.7849 45.5273 19.1421C45.5273 19.5204 45.5952 19.8672 45.7311 20.1825C45.8661 20.4982 46.0524 20.7748 46.2897 21.0121C46.5354 21.2466 46.8237 21.4319 47.139 21.5581ZM36.7441 21.0561V19.4119H39.2914V18.7925H36.7441V17.2281H39.604V16.5954H36.0181V21.6889H39.7059V21.0561H36.7441ZM30.9065 16.5954V21.6889H31.6325V20.1472H32.8883C33.3333 20.1472 33.7131 20.0768 34.0276 19.9359C34.3422 19.7908 34.5842 19.587 34.7536 19.3245C34.9227 19.0578 35.0074 18.7402 35.0078 18.3716C35.0078 18.0026 34.9229 17.6847 34.7531 17.418C34.584 17.151 34.3422 16.9472 34.0276 16.8067C33.7131 16.6662 33.3333 16.5959 32.8883 16.5959L30.9065 16.5954ZM31.6325 19.5133H32.8663C33.3306 19.5133 33.6814 19.4139 33.9188 19.2151C34.1608 19.0159 34.2818 18.7346 34.2818 18.371C34.2818 18.007 34.1608 17.7255 33.9188 17.5263C33.6814 17.3275 33.3306 17.2281 32.8663 17.2281H31.6325V19.5133ZM24.9457 21.6889V16.5954H29.3225V21.6889H28.6116V17.2281H25.6647V21.6889H24.9457ZM18.1778 21.6889L16.5313 19.4478H15.4701V21.6889H14.7585V16.5954H15.4701V18.8069H16.5452L18.1413 16.5954H18.9177L17.1027 19.0646L19.0051 21.6889H18.1778ZM20.7802 14.1261C19.7427 14.1261 18.7803 13.9542 17.8929 13.6103C17.0421 13.2814 16.2647 12.7876 15.6055 12.1571C14.9664 11.5302 14.4567 10.7836 14.1055 9.96004C13.7554 9.11903 13.5804 8.20159 13.5804 7.20773C13.5804 6.21387 13.7554 5.29643 14.1055 4.45541C14.458 3.62778 14.9746 2.88018 15.6241 2.25773C16.2833 1.62749 17.0607 1.13383 17.9115 0.805149C18.7868 0.461254 19.7369 0.289307 20.7616 0.289307C21.7991 0.289307 22.7492 0.461254 23.6118 0.805149C24.4864 1.14904 25.2427 1.63343 25.8807 2.25831C26.5301 2.88058 27.0467 3.62799 27.3993 4.45541C27.7621 5.28331 27.9435 6.20075 27.9435 7.20773C27.9435 8.20159 27.7621 9.12539 27.3993 9.97915C27.0467 10.8068 26.5301 11.5544 25.8807 12.1768C25.2431 12.7886 24.4866 13.2664 23.6112 13.6103C22.749 13.9542 21.8053 14.1261 20.7802 14.1261ZM20.7616 11.489C21.3491 11.489 21.8865 11.387 22.374 11.1828C22.8671 10.983 23.3139 10.6838 23.6865 10.3039C24.065 9.91628 24.3587 9.45414 24.5491 8.94689C24.7614 8.42467 24.8675 7.84496 24.8675 7.20773C24.8675 6.57089 24.7614 5.99117 24.5491 5.46857C24.3587 4.96131 24.065 4.49918 23.6865 4.11152C23.324 3.72851 22.8827 3.42868 22.3931 3.23268C21.8929 3.02889 21.3491 2.92699 20.7616 2.92699C20.1742 2.92699 19.6304 3.02889 19.1302 3.23268C18.6442 3.4355 18.2043 3.73443 17.8368 4.11152C17.457 4.50192 17.1575 4.96296 16.9551 5.46857C16.7551 5.99117 16.6552 6.57089 16.6552 7.20773C16.6552 7.83183 16.7551 8.41155 16.9551 8.94689C17.1544 9.44963 17.4471 9.91009 17.8177 10.3039C18.1903 10.6838 18.637 10.983 19.1302 11.1828C19.6304 11.3873 20.1742 11.4894 20.7616 11.489ZM32.0754 11.5655C31.5879 11.6546 30.9816 11.5909 30.2564 11.3744L29.5252 13.7249C30.4005 14.0943 31.2444 14.241 32.0569 14.1649C32.8694 14.1013 33.6131 13.8145 34.2882 13.3046C34.9756 12.7951 35.5692 12.0624 36.069 11.1064L41.6564 0.51857H38.6754L35.0703 7.7091L31.5879 0.519149H28.3441L33.5112 10.3358L33.407 10.4956C33.0191 11.1069 32.5752 11.4638 32.0754 11.566M43.1009 0.519149V13.8969H45.9511V6.03594L49.8138 12.4825H51.1639L55.0284 5.89525L55.0446 13.8963H57.8947L57.8762 0.519149H55.3636L50.5294 8.82646L45.6147 0.51857L43.1009 0.519149ZM3.806 0.519149H0.299895L4.68774 7.05489L0 13.8969H3.50611L6.52532 9.46273L9.581 13.8969H13.1624L8.43758 6.92057L12.8063 0.519149H9.24405L6.52474 4.57062L3.806 0.519149Z" fill="#CF3438"/>
</g>
<defs>
<clipPath id="clip0_1590_18635">
<rect width="57.8947" height="22" fill="white"/>
</clipPath>
</defs>
</svg>
