<svg width="77" height="22" viewBox="0 0 77 22" fill="none" xmlns="http://www.w3.org/2000/svg">
<g clip-path="url(#clip0_1590_18621)">
<path d="M10.999 22C17.0742 22 21.999 17.0751 21.999 11C21.999 4.92487 17.0742 0 10.999 0C4.92389 0 -0.000976562 4.92487 -0.000976562 11C-0.000976562 17.0751 4.92389 22 10.999 22Z" fill="#1E60FC"/>
<path fill-rule="evenodd" clip-rule="evenodd" d="M11 22C17.0744 22 22 17.0751 22 11C22 4.92486 17.0736 0 11 0C4.92329 0 0 4.92486 0 11C0 17.0751 4.92407 22 11 22ZM17.3769 13.9291L12.4049 6.08457C12.2548 5.84765 12.0473 5.65251 11.8016 5.51729C11.5559 5.38208 11.28 5.31117 10.9996 5.31117C10.7192 5.31117 10.4433 5.38208 10.1976 5.51729C9.95191 5.65251 9.7444 5.84765 9.59436 6.08457L4.62236 13.9291C4.41394 14.2728 4.34858 14.6845 4.44033 15.0758C4.53208 15.4671 4.77361 15.8068 5.11306 16.022C5.45251 16.2372 5.86281 16.3107 6.25585 16.2267C6.6489 16.1427 6.99334 15.908 7.21521 15.5729L10.9992 9.60143L14.784 15.5729C15.0059 15.908 15.3503 16.1427 15.7434 16.2267C16.1364 16.3107 16.5467 16.2372 16.8862 16.022C17.2256 15.8068 17.4671 15.4671 17.5589 15.0758C17.6506 14.6845 17.5853 14.2728 17.3769 13.9291Z" fill="#1E60FC"/>
<path d="M12.405 6.08443L17.377 13.929C17.5854 14.2727 17.6507 14.6843 17.559 15.0756C17.4672 15.4669 17.2257 15.8067 16.8863 16.0218C16.5468 16.237 16.1365 16.3105 15.7435 16.2266C15.3504 16.1426 15.006 15.9078 14.7841 15.5727L10.9993 9.60129L7.21533 15.5727C6.99345 15.9078 6.64901 16.1426 6.25597 16.2266C5.86292 16.3105 5.45262 16.237 5.11317 16.0218C4.77372 15.8067 4.53219 15.4669 4.44044 15.0756C4.3487 14.6843 4.41405 14.2727 4.62247 13.929L9.59447 6.08443C9.74452 5.84751 9.95203 5.65237 10.1977 5.51716C10.4434 5.38194 10.7193 5.31104 10.9997 5.31104C11.2802 5.31104 11.556 5.38194 11.8017 5.51716C12.0474 5.65237 12.2549 5.84751 12.405 6.08443Z" fill="white"/>
</g>
<g clip-path="url(#clip1_1590_18621)">
<path d="M30.6 7.70005C30.9496 6.39576 32.1321 5.50005 33.5032 5.50005H38.9922C39.1996 5.50005 39.3748 5.65719 39.3748 5.86148V16.1386C39.3748 16.3429 39.1996 16.5 38.9922 16.5H37.508C37.46 16.5012 37.4122 16.4927 37.3675 16.475C37.3228 16.4573 37.2821 16.4308 37.2479 16.3971C37.2137 16.3634 37.1866 16.3231 37.1682 16.2787C37.1499 16.2343 37.1406 16.1867 37.1411 16.1386V8.06148C37.1411 7.85719 36.9658 7.70005 36.7584 7.70005H33.2801C33.1731 7.69734 33.0685 7.73192 32.9842 7.79785C32.8999 7.86379 32.8412 7.95699 32.8181 8.06148L30.6157 16.1386C30.5868 16.2433 30.5241 16.3354 30.4375 16.4008C30.3508 16.4661 30.245 16.501 30.1364 16.5H28.5736C28.5305 16.5001 28.4879 16.4902 28.4492 16.4711C28.4105 16.4521 28.3767 16.4243 28.3505 16.39C28.2868 16.3272 28.2711 16.2329 28.3033 16.1386L30.6 7.70005ZM40.6587 14.3V7.70005C40.6587 6.49005 41.6644 5.50005 42.8925 5.50005H49.5946C50.8227 5.50005 51.8276 6.49005 51.8276 7.70005V14.3C51.8276 15.51 50.8227 16.5 49.5938 16.5H42.8917C41.6636 16.5 40.6587 15.51 40.6587 14.3ZM43.2594 14.3H49.2269C49.4343 14.3 49.5938 14.1429 49.5938 13.9386V8.06148C49.5938 7.85719 49.4343 7.70005 49.2269 7.70005H43.2594C43.052 7.70005 42.8925 7.85719 42.8925 8.06148V13.9386C42.8925 14.1429 43.052 14.3 43.2594 14.3ZM53.4211 16.1386V5.86148C53.4211 5.65719 53.5806 5.50005 53.7872 5.50005H55.2879C55.4953 5.50005 55.6548 5.65719 55.6548 5.86148V9.53862C55.6548 9.74291 55.8143 9.90005 56.0218 9.90005H57.4101C57.649 9.90005 57.8721 9.80576 58.0159 9.61719L61.3992 5.78291C61.4712 5.69186 61.5634 5.61888 61.6686 5.56978C61.7738 5.52067 61.889 5.49679 62.005 5.50005H64.2231C64.2867 5.50005 64.3511 5.53148 64.3668 5.59433C64.3983 5.65719 64.3826 5.72005 64.3511 5.78291L60.0108 10.7172C59.9414 10.7951 59.9031 10.8957 59.9031 11C59.9031 11.1044 59.9414 11.205 60.0108 11.2829L64.3503 16.2172C64.3826 16.28 64.3991 16.3429 64.3661 16.4058C64.3503 16.4686 64.2875 16.5 64.2231 16.5H62.005C61.889 16.5033 61.7738 16.4794 61.6686 16.4303C61.5634 16.3812 61.4712 16.3082 61.3992 16.2172L58.0159 12.3829C57.9438 12.2918 57.8515 12.2187 57.7462 12.1696C57.6408 12.1205 57.5255 12.0967 57.4093 12.1H56.0218C55.8143 12.1 55.6548 12.2572 55.6548 12.4615V16.1386C55.6548 16.3429 55.4953 16.5 55.2871 16.5H53.7872C53.7392 16.5012 53.6914 16.4927 53.6467 16.475C53.602 16.4573 53.5614 16.4308 53.5271 16.3971C53.4929 16.3634 53.4658 16.3231 53.4474 16.2787C53.4291 16.2343 53.4206 16.1867 53.4211 16.1386ZM65.0449 14.3V7.70005C65.0449 6.49005 66.0506 5.50005 67.2787 5.50005H73.9809C75.2089 5.50005 76.2146 6.49005 76.2146 7.70005V14.3C76.2146 15.51 75.2089 16.5 73.9809 16.5H67.2787C66.0506 16.5 65.0449 15.51 65.0449 14.3ZM67.6456 14.3H73.6139C73.8213 14.3 73.9809 14.1429 73.9809 13.9386V8.06148C73.9809 7.85719 73.8213 7.70005 73.6139 7.70005H67.6456C67.4382 7.70005 67.2787 7.85719 67.2787 8.06148V13.9386C67.2787 14.1429 67.4382 14.3 67.6456 14.3Z" fill="white"/>
</g>
<defs>
<clipPath id="clip0_1590_18621">
<rect width="22" height="22" fill="white"/>
</clipPath>
<clipPath id="clip1_1590_18621">
<rect width="47.9286" height="11" fill="white" transform="translate(28.2861 5.5)"/>
</clipPath>
</defs>
</svg>
