<svg width="64" height="20" viewBox="0 0 64 20" fill="none" xmlns="http://www.w3.org/2000/svg">
<g clip-path="url(#clip0_1590_18607)">
<path d="M16.1189 3.05115C16.1376 3.00488 16.1679 2.96312 16.2098 2.92585C16.2518 2.88858 16.2821 2.86995 16.3008 2.86995C16.3195 2.86995 16.3356 2.87252 16.3498 2.87702C16.3639 2.88152 16.3711 2.90722 16.3711 2.95348C16.3711 3.00938 16.3666 3.05115 16.3569 3.07878L15.2663 7.68907H17.4474L18.7753 1.46277C18.7843 1.41651 18.7914 1.36767 18.7966 1.31627C18.8011 1.26551 18.8036 1.21668 18.8036 1.16977C18.8036 1.00271 18.7617 0.861347 18.6779 0.745047C18.594 0.628747 18.4844 0.531721 18.3496 0.452686C18.2142 0.373654 18.0607 0.315825 17.8885 0.278558C17.7157 0.24129 17.5364 0.222656 17.35 0.222656C16.9309 0.222656 16.5761 0.290123 16.2879 0.424415C15.9989 0.559351 15.7429 0.817012 15.5191 1.1974L13.1988 5.13942C13.1523 5.21394 13.1033 5.28333 13.0517 5.34825C13.0001 5.41316 12.9518 5.4459 12.9047 5.4459C12.8583 5.4459 12.8209 5.41381 12.7931 5.34825C12.7654 5.28333 12.7415 5.21394 12.7235 5.13942L12.0805 1.1974C12.0154 0.817012 11.8657 0.559351 11.6329 0.424415C11.4001 0.290123 11.0783 0.222656 10.6682 0.222656C10.2489 0.222656 9.8646 0.320322 9.51508 0.515012C9.16551 0.710347 8.94434 1.02584 8.85082 1.46213L7.52295 7.68842H9.70404L10.5985 3.03637C10.6075 3.00874 10.6217 2.97597 10.6404 2.9387C10.6591 2.90143 10.6869 2.8828 10.7243 2.8828C10.752 2.8828 10.7733 2.90143 10.7875 2.9387C10.8016 2.97597 10.8133 3.01773 10.8223 3.064L11.4936 7.10368C11.5401 7.34529 11.6407 7.51686 11.7942 7.61903C11.9476 7.72116 12.174 7.77194 12.4719 7.77194C12.7609 7.77194 13.0079 7.72055 13.2129 7.61903C13.418 7.51686 13.5902 7.34529 13.7302 7.10368L16.1189 3.05115ZM26.5129 7.68968L27.8272 1.53281C27.8362 1.48654 27.8433 1.44028 27.8485 1.39338C27.853 1.34711 27.8556 1.30085 27.8556 1.25394C27.8556 0.984717 27.7717 0.745686 27.604 0.53686C27.4364 0.328033 27.161 0.223299 26.7792 0.223299C26.4155 0.223299 26.0756 0.267635 25.7589 0.355664C25.4423 0.444334 25.1766 0.622964 24.9619 0.892191L21.6625 4.84773C21.6161 4.89459 21.5735 4.94086 21.5368 4.98716C21.4993 5.03403 21.4529 5.05655 21.3968 5.05655C21.3407 5.05655 21.313 5.0289 21.313 4.97299C21.313 4.92673 21.3175 4.88499 21.3272 4.84773L22.3893 0.30683H20.2083L18.8804 6.56073C18.8707 6.60699 18.8643 6.65133 18.8591 6.69312C18.8546 6.73486 18.852 6.7792 18.852 6.82546C18.852 7.10433 18.9475 7.33181 19.1383 7.50786C19.3293 7.68455 19.593 7.77259 19.9284 7.77259C20.2921 7.77259 20.6319 7.73081 20.9486 7.64729C21.2653 7.56377 21.5639 7.35494 21.8431 7.02081L25.0863 3.14882C25.1611 3.07428 25.214 3.02095 25.2469 2.98882C25.2792 2.95669 25.3146 2.93999 25.352 2.93999C25.3985 2.93999 25.4217 2.96762 25.4217 3.02352C25.4217 3.04215 25.4217 3.06336 25.4217 3.08649C25.4217 3.10962 25.4172 3.13082 25.4075 3.14946L24.3311 7.69033H26.5129V7.68968ZM27.6801 7.68968H29.8612L30.9937 2.38418C31.0588 2.05841 31.2594 1.89585 31.5947 1.89585H36.1258L36.4612 0.308114H30.6577C30.1353 0.308114 29.749 0.419275 29.4975 0.642238C29.246 0.865204 29.0686 1.21796 28.9661 1.70116L27.6801 7.68968Z" fill="#32E17D"/>
<path d="M7.07139 3.45981C7.01596 3.33451 6.94565 3.1938 6.86243 3.03637L5.45396 0.327393H3.20905L4.72396 3.03123H0.347606L0 4.65625H4.30862L1.35495 7.68968H3.94812L6.569 4.82777C6.7083 4.67038 6.84117 4.50847 6.96626 4.34138C7.09204 4.17496 7.15461 4.0034 7.15461 3.82734C7.15526 3.70783 7.12752 3.58446 7.07139 3.45981Z" fill="white"/>
<path d="M63.0433 13.1756H58.6929L61.5059 10.1948H59.0681L56.7551 12.8036C56.5516 13.0246 56.3855 13.2244 56.2564 13.4037C56.1268 13.583 56.062 13.779 56.062 13.9903C56.062 14.0919 56.0803 14.1857 56.1177 14.2731C56.1546 14.3605 56.2098 14.4729 56.2842 14.611L57.919 17.5096H60.232L58.6081 14.7903H62.7016L63.0433 13.1756Z" fill="#32E17D"/>
<path d="M7.56162 17.4692H5.41797L6.97088 10.2129H9.11453L7.56162 17.4692ZM13.113 17.4692H10.6398L8.94945 14.7582C8.74762 14.4479 8.64701 14.1652 8.64701 13.9095C8.64701 13.5811 8.87593 13.1885 9.33384 12.7323L11.8896 10.2135H14.377L11.3266 13.1982C11.3079 13.2168 11.2666 13.2553 11.2028 13.3145C11.1383 13.3742 11.0951 13.4147 11.0725 13.4378C11.0493 13.4609 11.0151 13.4976 10.9693 13.5471C10.9235 13.5972 10.8913 13.6408 10.8732 13.6768C10.8545 13.7135 10.8364 13.7572 10.8184 13.8066C10.7997 13.8568 10.7907 13.9049 10.7907 13.9506C10.7907 14.1151 10.85 14.2789 10.9693 14.4434L13.113 17.4692Z" fill="white"/>
<path d="M16.4889 10.2129H19.2098C20.1533 10.2129 20.8085 10.441 21.1748 10.8972C21.5411 11.3534 21.7243 12.0107 21.7243 12.8685C21.7243 13.1609 21.674 13.576 21.5733 14.1144C21.3257 15.3282 20.9343 16.1912 20.3983 16.7019C19.8624 17.2134 18.9944 17.4685 17.7942 17.4685H15.7053L15.2107 19.7958H13.0806L14.8257 11.5815C15.0276 10.6691 15.5815 10.2129 16.4889 10.2129ZM16.8185 12.3076L16.0491 15.8943H17.5607C18.1193 15.8943 18.5294 15.7118 18.7906 15.3468C19.0518 14.9818 19.251 14.48 19.3884 13.8407C19.48 13.4301 19.5258 13.0921 19.5258 12.8274C19.5258 12.4901 19.4432 12.2318 19.2781 12.0538C19.113 11.8758 18.8248 11.7871 18.4127 11.7871H17.4782C17.2763 11.7871 17.1254 11.8263 17.0248 11.9034C16.9236 11.9812 16.8552 12.1161 16.8185 12.3076Z" fill="white"/>
<path d="M28.8131 17.4689H24.6909C23.8203 17.4689 23.1837 17.289 22.7807 16.9279C22.3776 16.5674 22.1758 16.0084 22.1758 15.2508C22.1758 14.74 22.2583 14.1238 22.4234 13.4028C22.5608 12.8098 22.7097 12.3234 22.8697 11.9449C23.0296 11.5665 23.2134 11.2535 23.4191 11.0068C23.6255 10.7601 23.8932 10.5757 24.2227 10.4523C24.5523 10.3289 24.9076 10.2448 25.2874 10.1991C25.6673 10.1535 26.1645 10.1304 26.7785 10.1304C27.878 10.1304 28.7113 10.2923 29.2794 10.6162C29.8476 10.94 30.1313 11.5086 30.1313 12.3208C30.1313 12.5765 30.0856 12.9094 29.994 13.32C29.9024 13.7492 29.7444 14.0615 29.52 14.2581C29.2955 14.4547 28.9679 14.5524 28.5378 14.5524H24.4291C24.3923 14.7259 24.3743 14.8994 24.3743 15.0728C24.3743 15.3652 24.4658 15.5818 24.649 15.7231C24.8321 15.8645 25.1481 15.9352 25.597 15.9352H29.142L28.8131 17.4689ZM24.7457 13.0739H27.4118C27.6775 13.0739 27.8426 12.928 27.9064 12.6357C27.9245 12.5444 27.9341 12.4808 27.9341 12.4442C27.9341 12.1705 27.8013 11.9719 27.5356 11.8485C27.2699 11.7252 26.9539 11.6635 26.5876 11.6635C26.0291 11.6635 25.6118 11.7663 25.3371 11.9713C25.0617 12.1769 24.8644 12.5444 24.7457 13.0739Z" fill="white"/>
<path d="M29.4038 17.4689L29.7334 15.8947H30.4615L33.6905 10.9657C34.0478 10.4092 34.6475 10.1304 35.4905 10.1304C36.3146 10.1304 36.7867 10.4086 36.906 10.9657L38.0191 15.8947H38.9626L38.6331 17.4689H29.4038ZM34.9274 12.1839L32.6329 15.9628H36.0954L35.4221 12.1839C35.3943 12.0291 35.335 11.9514 35.2435 11.9514C35.1151 11.9514 35.01 12.0291 34.9274 12.1839Z" fill="white"/>
<path d="M46.9001 17.4689H44.7566L45.8148 13.0058C45.824 12.9782 45.8283 12.937 45.8283 12.8824C45.8283 12.8278 45.8053 12.8002 45.7592 12.8002C45.7227 12.8002 45.6357 12.8689 45.4983 13.0058L42.3104 16.8116C42.0628 17.1129 41.7925 17.3115 41.4998 17.4072C41.2063 17.5029 40.8491 17.5512 40.4279 17.5512C40.0984 17.5512 39.8391 17.4644 39.6515 17.2909C39.4638 17.1174 39.3696 16.8938 39.3696 16.6201C39.3696 16.5745 39.3787 16.4877 39.3974 16.3598L40.7027 10.2126H42.8463L41.8022 14.6758C41.7932 14.7124 41.7887 14.7535 41.7887 14.7991C41.7887 14.8537 41.8164 14.8814 41.8712 14.8814C41.908 14.8814 41.9402 14.8724 41.9673 14.8537C41.9951 14.8358 42.0267 14.8036 42.0634 14.758C42.1002 14.7124 42.1228 14.6848 42.1324 14.6758L45.3748 10.7877C45.7322 10.3495 46.3275 10.1304 47.1614 10.1304C47.5096 10.1304 47.7727 10.2287 47.9514 10.4247C48.1301 10.6213 48.2196 10.8609 48.2196 11.1437C48.2196 11.1983 48.2105 11.2895 48.1918 11.4174L46.9001 17.4689Z" fill="white"/>
<path d="M52.3029 17.469H50.1594L51.382 11.7876H48.6611L48.9907 10.2134H56.5755L56.2459 11.7876H53.525L52.3029 17.469Z" fill="white"/>
</g>
<defs>
<clipPath id="clip0_1590_18607">
<rect width="63.0435" height="20" fill="white"/>
</clipPath>
</defs>
</svg>
