<svg width="98" height="16" viewBox="0 0 98 16" fill="none" xmlns="http://www.w3.org/2000/svg">
<g clip-path="url(#clip0_1590_18617)">
<path fill-rule="evenodd" clip-rule="evenodd" d="M0 9.63521C0 12.6771 1.70777 15.7448 5.532 15.7448C9.3528 15.7448 11.064 12.6771 11.064 9.63521C11.064 7.55723 10.3623 5.1645 9.191 3.23181C8.05194 1.36548 6.68338 0.255371 5.532 0.255371C4.37733 0.255371 3.00815 1.36548 1.87902 3.23181C0.702234 5.1645 0 7.55723 0 9.63521ZM39.2767 4.81909H35.4043V1.08512H47.2981V4.81909H43.4257V14.9149H39.2767V4.81909ZM56.1489 4.81925H62.2345V1.08512H56.1494C50.558 1.08512 47.5729 3.86494 47.5729 8.0001C47.5729 12.1353 50.558 14.9151 56.1494 14.9151H62.2345V11.181H56.1489C53.5618 11.181 51.8601 10.2561 51.8601 8.0001C51.8601 5.74412 53.5618 4.81925 56.1489 4.81925ZM24.7541 9.34001L26.966 1.08512H34.2978V14.9151H30.1487V3.65873L27.1327 14.9151H22.3755L19.3614 3.66588L19.3613 14.9151H15.2125V1.08512H22.5421L24.7541 9.34001ZM72.5668 5.09377H71.1037V6.44668H72.5668C72.9373 6.44668 73.158 6.25624 73.158 5.90545V5.655C73.158 5.29413 72.9676 5.09377 72.5668 5.09377ZM72.9373 7.99997H69.1495V1.08512H74.7212V2.73873H71.1037V3.64052H72.9373C74.4708 3.64052 75.2123 4.40227 75.2123 5.7451C75.2123 7.15799 74.4708 7.99997 72.9373 7.99997ZM79.7217 5.17395H78.1779L78.9498 2.61855L79.7217 5.17395ZM82.6879 8.0001L80.553 1.08512H77.6474L75.5124 8.0001H77.3363L77.7274 6.67729H80.1728L80.573 8.0001H82.6879ZM87.6284 8.0001V5.32438H85.3934V8.0001H83.3895V1.08512H85.3934V3.62051H87.6284V1.08512H89.633V8.0001H87.6284ZM93.1891 3.62051H92.838V1.08512H90.8341V8.0001H92.838V5.32438H93.1291L94.9833 8.0001H97.2977L94.7923 4.38227L97.0976 1.08512H94.9833L93.1891 3.62051Z" fill="#E30611"/>
</g>
<defs>
<clipPath id="clip0_1590_18617">
<rect width="97.4545" height="16" fill="white"/>
</clipPath>
</defs>
</svg>
