<svg width="80" height="25" viewBox="0 0 80 25" fill="none" xmlns="http://www.w3.org/2000/svg">
<g clip-path="url(#clip0_1590_18643)">
<path fill-rule="evenodd" clip-rule="evenodd" d="M0 15.9177C0 10.2985 1.84108 0 9.33963 0C15.0163 0 23.2436 6.81583 23.2436 13.2884C23.2436 18.0253 16.2054 23.913 11.2574 23.913C6.90406 23.913 6.52047 18.639 6.52047 14.9952C6.52047 11.9459 7.2876 7.28568 10.2985 7.28568C12.9834 7.28568 16.5889 10.4117 16.5889 13.2308C16.5889 16.1267 11.6679 17.8278 9.76349 17.3368C10.0492 19.4636 10.6246 20.7889 11.6027 20.7889C15.1506 20.7889 19.9834 16.4163 19.9834 13.3286C19.9834 8.99443 13.9232 3.50956 9.58896 3.50956C4.35339 3.50956 3.26024 11.6218 3.26024 15.6492C3.26024 18.43 3.98901 22.7067 5.96432 24.8162C1.91779 26.0436 0 20.9039 0 15.9177ZM10.8739 10.567C9.66568 10.567 9.60812 13.5204 9.60812 14.4602V15.1122C11.1232 15.1122 13.4821 14.4793 13.4821 13.041C13.4821 12.0629 11.756 10.567 10.8739 10.567ZM26.6573 12.5231C26.6381 9.1862 27.8464 7.82453 29.2655 7.82453C32.334 7.82453 35.0189 10.5286 35.0189 12.4465C35.0189 15.1812 31.4595 17.6954 28.882 16.8899V20.0793C27.4436 20.0793 26.6765 18.7368 26.6765 17.471L26.6573 12.5231ZM28.882 12.504V15.0163C30.7806 15.5533 32.66 13.8464 32.66 12.6574C32.66 11.4684 30.7806 10.0108 29.6299 10.0108C29.0354 10.0108 28.882 10.9506 28.882 12.504ZM39.2572 7.65198C37.5504 7.65198 35.6326 8.36156 36.2846 10.2602C37.119 9.87141 38.0299 9.67479 38.9504 9.68484C40.2928 9.68484 40.9449 10.1834 40.9449 11.0848V11.7349C38.701 10.5248 35.6901 11.3322 35.6901 14.1149C35.6901 16.0519 37.1477 17.2409 39.5257 17.2409C41.4819 17.2409 43.1695 15.8218 43.1695 13.9423V11.0081C43.1695 9.03276 41.5778 7.65198 39.2572 7.65198ZM39.449 15.3231C38.4134 15.3231 37.8956 14.7094 37.8956 14.0766C37.8956 13.4437 38.4134 12.8108 39.4873 12.8108H40.9449V13.8081C40.9449 14.7286 40.3695 15.3231 39.449 15.3231ZM48.1865 14.0133L49.69 9.50078C50.0352 8.43833 51.5503 7.74792 52.6432 8.06245L48.5969 18.361C48.0407 19.8185 46.7366 20.3171 45.6051 19.9528L46.9591 16.681L43.2462 8.10078C44.3969 7.69807 45.7393 8.21583 46.3147 9.5775L48.1865 14.0133ZM55.5776 14.2108V4.58351C54.1391 4.58351 53.3724 5.92594 53.3724 7.19172V14.6711C53.3724 16.3971 54.4078 17.2409 55.3859 17.2409C56.287 17.2409 57.112 16.7231 57.112 15.3231H56.5365C55.8271 15.3231 55.5776 14.8437 55.5776 14.2108ZM57.975 10.2602C57.3229 8.36156 59.2406 7.65198 60.9474 7.65198C63.2677 7.65198 64.8599 9.03276 64.8599 11.0081V13.9423C64.8599 15.8218 63.1719 17.2409 61.2161 17.2409C58.838 17.2409 57.3802 16.0519 57.3802 14.1149C57.3802 11.3322 60.3911 10.5248 62.6349 11.7349V11.0848C62.6349 10.1834 61.9828 9.68484 60.6406 9.68484C59.7203 9.67479 58.8094 9.87141 57.975 10.2602ZM59.5859 14.0766C59.5859 14.7094 60.1036 15.3231 61.1391 15.3231C62.0599 15.3231 62.6349 14.7286 62.6349 13.8081V12.8108H61.1776C60.1036 12.8108 59.5859 13.4437 59.5859 14.0766ZM68.9062 9.9725C69.1672 9.98922 69.4281 9.95177 69.674 9.8626C69.9193 9.77339 70.1437 9.63432 70.3328 9.45422C70.5219 9.27406 70.6719 9.05672 70.7729 8.81589C70.874 8.57505 70.924 8.31589 70.9198 8.05469H68.651V5.15884C67.213 5.15884 66.4458 6.5013 66.4458 7.76703V14.6711C66.4458 16.3971 67.5583 17.2409 68.613 17.2409C69.5911 17.2409 70.4922 16.7231 70.4922 15.3231H69.6099C68.9005 15.3231 68.651 14.8437 68.651 14.2108V9.95714L68.9062 9.9725ZM73.4323 13.2328C73.4323 14.5752 74.0844 15.2848 75.4266 15.2848C76.3536 15.296 77.2693 15.0787 78.0927 14.6519C78.687 16.5314 76.8651 17.2409 75.2734 17.2409C72.5885 17.2409 71.2078 15.5533 71.2078 13.1177V11.7177C71.2078 9.39719 72.8953 7.65198 74.9667 7.65198C77.2677 7.65198 78.687 8.84099 78.687 10.778C78.687 13.5626 75.676 14.37 73.4323 13.1599V13.2328ZM76.4818 10.8164C76.4818 10.1834 75.9635 9.56974 74.9281 9.56974C74.0078 9.56974 73.4323 10.4596 73.4323 11.8021V12.0821H74.8896C75.9635 12.0821 76.4818 11.4492 76.4818 10.8164Z" fill="#EB3B66"/>
</g>
<defs>
<clipPath id="clip0_1590_18643">
<rect width="79.1667" height="25" fill="white"/>
</clipPath>
</defs>
</svg>
