<svg width="70" height="40" viewBox="0 0 70 40" fill="none" xmlns="http://www.w3.org/2000/svg">
<rect width="70" height="40" rx="8" fill="url(#paint0_linear_1595_822)"/>
<rect x="14" width="42" height="40" fill="#D07B7B"/>
<path d="M35.508 20.794C37.2973 20.794 38.192 19.9947 38.192 18.396V18.308C38.192 17.472 37.9573 16.878 37.488 16.526C37.0187 16.1593 36.366 15.976 35.53 15.976H33.726V20.794H35.508ZM33.726 26.03V29H30.162V26.03H28.028V24.578H30.162V23.214H28.028V21.762H30.162V13.27H35.596C37.532 13.27 39.0207 13.688 40.062 14.524C41.1033 15.36 41.624 16.614 41.624 18.286V18.374C41.624 19.21 41.4847 19.936 41.206 20.552C40.9273 21.168 40.5313 21.6813 40.018 22.092C39.5047 22.488 38.8813 22.7887 38.148 22.994C37.4293 23.1993 36.6227 23.302 35.728 23.302H33.726V24.578H38.544V26.03H33.726Z" fill="white"/>
<defs>
<linearGradient id="paint0_linear_1595_822" x1="5.71797" y1="-4.45805e-07" x2="75" y2="40" gradientUnits="userSpaceOnUse">
<stop stop-color="#EEA4A4"/>
<stop offset="1" stop-color="#D78181"/>
</linearGradient>
</defs>
</svg>
