<svg width="125" height="15" viewBox="0 0 125 15" fill="none" xmlns="http://www.w3.org/2000/svg">
<g clip-path="url(#clip0_1590_18637)">
<path d="M9.79507 0.157959V4.02653H8.27292C6.35007 4.02653 4.80078 5.55296 4.80078 7.44796C4.80078 9.34224 6.35007 10.8687 8.27221 10.8687H9.79507V14.7372C13.2665 14.0794 15.8579 11.0794 15.8579 7.44724C15.8579 3.84224 13.2672 0.842245 9.79507 0.157959Z" fill="#003790"/>
<path d="M8.27293 12.0786C5.68221 12.0786 3.5715 10 3.5715 7.44786C3.5715 4.89571 5.6815 2.81643 8.2715 2.81643H8.56578V0H8.27221C4.1065 0 0.714355 3.34214 0.714355 7.44714C0.714355 11.5793 4.1065 14.9214 8.27293 14.9214H8.5665V12.08H8.27293V12.0786Z" fill="#FE5155"/>
<path d="M26.5411 10.0528C25.9292 10.5479 25.1654 10.8173 24.3783 10.8157C22.4819 10.8157 20.9597 9.31568 20.9597 7.4471C20.9597 5.57925 22.4811 4.07925 24.3783 4.07925C25.2037 4.07571 26.0017 4.3751 26.6211 4.92068L27.8233 3.73711C26.878 2.88613 25.6502 2.41693 24.3783 2.42068C21.5469 2.42068 19.2769 4.68425 19.2769 7.4471C19.2769 10.2107 21.5469 12.5 24.3783 12.5C25.6869 12.5 26.8619 12.0264 27.7433 11.2371L26.5411 10.0528ZM80.8926 2.81568L77.1269 7.28925L73.334 2.81568L73.3076 2.86853V2.81568H71.7847V12.0792H73.3076V5.28925L77.1269 9.76282L80.8926 5.39496V12.0792H82.3883V2.81568H80.8926ZM39.1476 7.4471C39.1476 10.2371 36.8504 12.4735 34.0461 12.4735C31.2154 12.4735 28.9454 10.2107 28.9454 7.4471C28.9454 4.68425 31.2419 2.42068 34.0461 2.42068C36.8504 2.42068 39.1476 4.68425 39.1476 7.4471ZM37.4383 7.4471C37.4383 5.57925 35.9161 4.07925 34.0197 4.07925C32.1233 4.07925 30.6011 5.57925 30.6011 7.4471C30.6011 9.31568 32.1233 10.8157 34.0197 10.8157C35.9161 10.8157 37.4383 9.31568 37.4383 7.4471ZM70.2361 7.4471C70.2361 10.2371 67.939 12.4735 65.1347 12.4735C62.3033 12.4735 60.0333 10.2107 60.0333 7.4471C60.0333 4.68425 62.3304 2.42068 65.1347 2.42068C67.9654 2.42068 70.2361 4.68425 70.2361 7.4471ZM68.5533 7.4471C68.5533 5.57925 67.0311 4.07925 65.1347 4.07925C63.2383 4.07925 61.7161 5.57925 61.7161 7.4471C61.7161 9.31568 63.2383 10.8157 65.1347 10.8157C67.004 10.8157 68.5533 9.31568 68.5533 7.4471ZM60.0069 2.81568H57.9497L54.0776 6.71068H52.5019V2.81568H51.0061V12.0792H52.5019V8.21068H54.0504L57.9233 12.0792H59.9533L55.3597 7.47353L60.0069 2.81568ZM123.358 2.81568H121.329L117.429 6.71068H115.853V2.81568H114.358V12.0792H115.853V8.21068H117.429L121.275 12.0792H123.305L118.738 7.47353L123.358 2.81568ZM101.243 12.0785H102.9L98.7597 2.81568H97.0504L92.9111 12.0792H94.5669L95.4747 10.0792H100.336L101.243 12.0785ZM96.1433 8.60496L97.9054 4.71068L99.6683 8.60496H96.1426H96.1433ZM49.0833 9.39496C49.0833 9.0288 49.0073 8.66661 48.8602 8.33132C48.713 7.99603 48.4978 7.69494 48.2283 7.4471C48.7354 6.9471 49.0833 6.26282 49.0833 5.49996C49.081 4.78639 48.7956 4.1029 48.2898 3.5996C47.7839 3.0963 47.099 2.81435 46.3854 2.81568H40.884V12.105H46.3854C47.8811 12.0792 49.0833 10.8685 49.0833 9.39496ZM42.4061 4.31639H46.359C47.0269 4.31639 47.5604 4.8421 47.5604 5.49996C47.5604 6.15782 47.0269 6.68425 46.359 6.68425H42.4061V4.31568V4.31639ZM46.359 10.605H42.4061V8.21068H46.3854C47.0533 8.21068 47.5876 8.76282 47.5876 9.39496C47.5604 10.0521 47.0269 10.605 46.359 10.605ZM110.965 2.84211V6.71068H105.49V2.84211H103.968V12.0528H105.49V8.20996H110.965V12.0528H112.488V2.84211H110.965ZM92.3769 9.39496C92.3769 7.92068 91.1483 6.71068 89.6526 6.71068H85.6997V4.31568H91.469V2.81568H84.1776V12.105H89.6526C91.1483 12.0792 92.3769 10.8685 92.3769 9.39496ZM89.6526 10.605H85.6997V8.21068H89.6526C90.3204 8.21068 90.8547 8.76282 90.8547 9.39496C90.8547 10.0521 90.3204 10.605 89.6526 10.605Z" fill="#003790"/>
</g>
<defs>
<clipPath id="clip0_1590_18637">
<rect width="124.167" height="15" fill="white"/>
</clipPath>
</defs>
</svg>
