<svg width="66" height="20" viewBox="0 0 66 20" fill="none" xmlns="http://www.w3.org/2000/svg">
<g clip-path="url(#clip0_1590_18594)">
<path d="M0 0H20V10.0586C20 12.6371 18.6244 15.0199 16.3914 16.3093L10 20L3.60859 16.3093C1.37557 15.0199 0 12.6371 0 10.0586V0Z" fill="#FFDD2D"/>
<path fill-rule="evenodd" clip-rule="evenodd" d="M5.48877 5.29395V8.42237C5.91657 7.93928 6.69438 7.61233 7.58371 7.61233H8.55016V11.2491C8.55016 12.2166 8.28728 13.0635 7.89722 13.5293H12.1011C11.7118 13.063 11.4496 12.2172 11.4496 11.2509V7.61233H12.4161C13.3054 7.61233 14.0832 7.93928 14.511 8.42237V5.29395H5.48877Z" fill="#333333"/>
<path d="M24.7158 13.5289V5.29443H33.0798V7.17644H27.2099V8.35306H30.1154C32.1741 8.35306 33.7034 8.82356 33.7034 10.9408C33.7034 13.0584 32.1741 13.5289 30.1154 13.5289H24.7158ZM27.2099 10.2351V11.6466H30.1271C30.9743 11.6466 31.1741 11.4822 31.1741 10.9408C31.1741 10.3998 30.9743 10.2351 30.1271 10.2351H27.2099Z" fill="white"/>
<path d="M47.5107 10.4703V13.5289H45.0166V5.29443H47.5107V8.29424H51.5925V5.29443H54.0865V13.5289H51.5925V10.4703H47.5107Z" fill="white"/>
<path d="M58.1049 10.4232V13.5289H55.6108V5.29443H58.1049V8.36475H59.5988L62.1986 5.29443H65.0218L61.7633 9.14101V9.29406L65.1865 13.5289H62.0927L59.5871 10.4232H58.1049Z" fill="white"/>
<path d="M41.0466 12.3173H37.1527L36.7175 13.5289H34.106L37.3646 5.29443H40.9642L44.211 13.5289H41.4818L41.0466 12.3173ZM40.3761 10.4352L39.2232 7.18849H39.0113L37.8351 10.4352H40.3761Z" fill="white"/>
</g>
<defs>
<clipPath id="clip0_1590_18594">
<rect width="65.1861" height="20" fill="white"/>
</clipPath>
</defs>
</svg>
