<svg width="110" height="39" viewBox="0 0 110 39" fill="none" xmlns="http://www.w3.org/2000/svg">
<path d="M97.0614 17.4736C97.2308 18.164 97.431 18.9081 97.6622 19.7059C97.9086 20.5037 98.1783 21.3248 98.4709 22.1687C98.7637 23.0124 99.0794 23.8564 99.4184 24.7004C99.7572 25.5441 100.112 26.3572 100.481 27.1396C101.067 25.5286 101.576 23.9331 102.007 22.3527C102.438 20.7723 102.846 19.1459 103.231 17.4736H105.45C104.896 19.729 104.279 21.9 103.601 23.9868C102.923 26.0581 102.192 27.9992 101.406 29.8096C101.098 30.5 100.774 31.0907 100.435 31.5817C100.112 32.088 99.7498 32.5023 99.3491 32.8246C98.9487 33.1467 98.494 33.3844 97.9856 33.538C97.4926 33.6914 96.9302 33.7681 96.2986 33.7681C96.1292 33.7681 95.9521 33.7528 95.7671 33.7221C95.5823 33.7067 95.3975 33.6761 95.2127 33.6301C95.0431 33.5994 94.8814 33.561 94.7274 33.515C94.5888 33.469 94.4887 33.4307 94.4269 33.4L94.8198 31.6739C94.9892 31.7506 95.205 31.8196 95.4668 31.881C95.744 31.9577 96.0137 31.9958 96.2757 31.9958C97.123 31.9958 97.7854 31.8041 98.263 31.4204C98.7406 31.0523 99.172 30.4463 99.5573 29.6025C98.5866 27.7612 97.6776 25.8128 96.8301 23.7567C95.9983 21.6854 95.3049 19.5909 94.7503 17.4736H97.0614ZM54.4476 17.1743C56.0652 17.1743 57.3054 17.6806 58.1682 18.6932C59.0311 19.6905 59.4623 21.2173 59.4623 23.2734V23.6417C59.4623 23.7797 59.4546 23.9101 59.4392 24.0328H51.2123C51.3047 25.2755 51.6666 26.2192 52.2982 26.8638C52.9298 27.5082 53.9161 27.8302 55.2565 27.8302C56.0113 27.8302 56.643 27.7689 57.1514 27.6462C57.6752 27.5082 58.0681 27.3776 58.3299 27.2549L58.6304 29.05C58.3684 29.188 57.9062 29.3339 57.2438 29.4873C56.5968 29.6407 55.8571 29.7176 55.0253 29.7176C53.9777 29.7176 53.0686 29.564 52.2982 29.257C51.5434 28.9349 50.9194 28.4976 50.4264 27.9453C49.9336 27.3929 49.5638 26.7409 49.3172 25.9889C49.0862 25.2218 48.9705 24.3857 48.9705 23.4804C48.9705 22.4217 49.1245 21.5011 49.4327 20.7186C49.7407 19.9208 50.149 19.2611 50.6574 18.7394C51.1658 18.2177 51.7515 17.8264 52.4139 17.5656C53.0763 17.3047 53.7544 17.1743 54.4476 17.1743ZM88.6076 17.1743C89.4705 17.1743 90.1945 17.2894 90.7799 17.5196C91.3807 17.7344 91.8584 18.0489 92.2128 18.4632C92.5824 18.8621 92.8444 19.3454 92.9984 19.913C93.1526 20.4654 93.2294 21.0793 93.2294 21.7544V29.2342C93.0446 29.2649 92.7826 29.3109 92.4438 29.3723C92.1202 29.4183 91.7506 29.4645 91.3345 29.5105C90.9185 29.5565 90.464 29.5947 89.9712 29.6253C89.4936 29.6713 89.016 29.6946 88.5383 29.6946C87.8605 29.6946 87.2364 29.6253 86.6664 29.4873C86.0963 29.3493 85.6033 29.1343 85.1873 28.8429C84.7715 28.536 84.4479 28.1372 84.2167 27.6462C83.9857 27.1552 83.8702 26.5645 83.8702 25.8741C83.8702 25.2144 84.0011 24.6465 84.2629 24.171C84.5403 23.6954 84.9101 23.3117 85.3723 23.0203C85.8345 22.7287 86.3738 22.5137 86.99 22.3757C87.6062 22.2377 88.2532 22.1687 88.931 22.1687C89.1466 22.1687 89.3702 22.184 89.6014 22.2147C89.8324 22.23 90.0482 22.2607 90.2484 22.3067C90.464 22.3374 90.649 22.368 90.803 22.3987C90.957 22.4294 91.0648 22.4524 91.1264 22.4677V21.8693C91.1264 21.5164 91.0879 21.1712 91.0109 20.8337C90.9339 20.4808 90.7953 20.1738 90.5949 19.913C90.3947 19.6369 90.1175 19.4222 89.7631 19.2687C89.4243 19.1 88.9772 19.0154 88.4226 19.0154C87.714 19.0154 87.0901 19.0691 86.5509 19.1765C86.027 19.2686 85.6343 19.3685 85.3723 19.4759L85.118 17.7036C85.3952 17.5809 85.8576 17.4659 86.5047 17.3585C87.1517 17.2357 87.8528 17.1743 88.6076 17.1743ZM49.2309 15.4251H44.1929V29.4413H41.9514V15.4251H36.9136V13.4919H49.2309V15.4251ZM66.9172 17.2202C67.1022 17.2202 67.3103 17.2356 67.5413 17.2663C67.7879 17.2816 68.0266 17.3124 68.2576 17.3585C68.4889 17.3891 68.6968 17.4274 68.8816 17.4734C69.082 17.5041 69.2283 17.5349 69.3207 17.5656L68.9511 19.4297C68.7815 19.3683 68.4966 19.2992 68.0959 19.2225C67.7107 19.1305 67.2102 19.0845 66.594 19.0845C66.1934 19.0845 65.7928 19.1305 65.3921 19.2225C65.0071 19.2992 64.7528 19.353 64.6296 19.3836V29.4413H62.4804V17.9798C62.9886 17.7957 63.6205 17.6268 64.3753 17.4734C65.1301 17.3046 65.9776 17.2202 66.9172 17.2202ZM75.7163 13.3308C77.9656 13.3308 79.691 13.7605 80.8927 14.6197C82.1097 15.4636 82.7182 16.7294 82.7182 18.4172C82.7182 19.3377 82.5488 20.128 82.2098 20.7877C81.8864 21.4321 81.4088 21.9614 80.7772 22.3757C80.1607 22.7747 79.4059 23.0661 78.5125 23.2501C77.6189 23.4344 76.6097 23.5264 75.4851 23.5264H73.7055V29.4413H71.4639V13.7221C72.0958 13.5687 72.7967 13.4688 73.5669 13.4228C74.3527 13.3614 75.0691 13.3308 75.7163 13.3308ZM89.1161 23.8947C88.7924 23.8947 88.4459 23.9177 88.0761 23.9638C87.7219 24.0098 87.3904 24.1095 87.0824 24.2628C86.7896 24.4011 86.5432 24.6005 86.3427 24.8614C86.1425 25.1068 86.0424 25.4368 86.0424 25.8511C86.0424 26.6182 86.2891 27.155 86.7819 27.4619C87.2749 27.7536 87.9452 27.8993 88.7924 27.8993C89.3008 27.8993 89.7477 27.8918 90.1329 27.8765C90.5335 27.8458 90.8646 27.7996 91.1264 27.7382V24.171C90.9724 24.0941 90.7181 24.0328 90.3639 23.9868C90.0249 23.9254 89.6091 23.8947 89.1161 23.8947ZM54.4243 18.9925C53.9315 18.9925 53.4923 19.0922 53.1071 19.2916C52.7373 19.4758 52.4216 19.7213 52.1596 20.0281C51.8978 20.335 51.6899 20.6879 51.5357 21.0868C51.3971 21.4857 51.3047 21.8924 51.2585 22.3067H57.2207C57.2361 21.34 56.9895 20.5499 56.481 19.9361C55.988 19.3071 55.3025 18.9925 54.4243 18.9925ZM75.9009 15.2871C74.9459 15.2871 74.2139 15.3101 73.7055 15.3562V21.6162H75.3927C76.1629 21.6162 76.8561 21.5702 77.4723 21.4782C78.0886 21.3708 78.6047 21.2019 79.0207 20.9717C79.4521 20.7262 79.7832 20.3964 80.0144 19.9821C80.2454 19.5678 80.3612 19.0385 80.3612 18.3941C80.3612 17.7804 80.238 17.274 79.9913 16.8751C79.7603 16.4762 79.4367 16.1617 79.0207 15.9315C78.6201 15.6861 78.1504 15.5171 77.6112 15.4251C77.0719 15.333 76.5019 15.2871 75.9009 15.2871Z" fill="#1E1E1E"/>
<path fill-rule="evenodd" clip-rule="evenodd" d="M10.8784 7.61612H15.1136V29.574H10.8784V7.61612Z" fill="url(#paint0_linear_1485_10595)"/>
<path fill-rule="evenodd" clip-rule="evenodd" d="M4.40088 5.25891H24.7898C28.9395 5.25891 32.3035 8.60908 32.3035 12.7417C32.3035 17.3789 28.5287 21.138 23.8726 21.138H23.0855V29.5739H18.8504V16.9202H23.8726C26.1897 16.9202 28.0683 15.0494 28.0683 12.7417C28.0683 10.9386 26.6004 9.4768 24.7898 9.4768H4.40088V5.25891Z" fill="url(#paint1_linear_1485_10595)"/>
<path d="M24.79 5.25891C28.9395 5.25895 32.3033 8.60912 32.3033 12.7417C32.3033 13.6398 32.1611 14.5047 31.8989 15.316C31.9191 15.0169 31.9297 14.763 31.9297 14.563C31.9297 11.754 28.8066 9.47685 24.9542 9.47683L24.9487 9.48068C24.8961 9.47816 24.8433 9.47683 24.79 9.47683H4.40088V5.25891H24.79Z" fill="url(#paint2_linear_1485_10595)"/>
<defs>
<linearGradient id="paint0_linear_1485_10595" x1="12.996" y1="-2.30833" x2="12.996" y2="29.698" gradientUnits="userSpaceOnUse">
<stop stop-color="#675DEF" stop-opacity="0"/>
<stop offset="1" stop-color="#675DEF"/>
</linearGradient>
<linearGradient id="paint1_linear_1485_10595" x1="13.8678" y1="38.754" x2="30.5821" y2="10.2853" gradientUnits="userSpaceOnUse">
<stop stop-color="#675DEF" stop-opacity="0"/>
<stop offset="1" stop-color="#675DEF"/>
</linearGradient>
<linearGradient id="paint2_linear_1485_10595" x1="36.9123" y1="5.25891" x2="4.27631" y2="5.25891" gradientUnits="userSpaceOnUse">
<stop stop-color="#675DEF" stop-opacity="0"/>
<stop offset="1" stop-color="#675DEF"/>
</linearGradient>
</defs>
</svg>
