<svg width="110" height="25" viewBox="0 0 110 25" fill="none" xmlns="http://www.w3.org/2000/svg">
<path d="M96.6411 12.572C96.6411 9.50555 94.3723 7.02509 91.1678 7.02509C88.0267 7.02509 85.79 9.41024 85.79 12.6876C85.79 15.9813 88.0901 18.3829 91.3901 18.3829C93.4839 18.3829 95.2447 17.4251 96.3394 15.4782L94.1187 14.4235C93.5955 15.397 92.4527 16.0298 91.3901 16.0298C90.0418 16.0298 88.4873 14.9915 88.3918 13.5477H96.5616C96.6137 13.2252 96.6403 12.8989 96.6411 12.572ZM88.4392 11.6345C88.6302 10.1743 89.6133 9.21727 91.1839 9.21727C92.7384 9.21727 93.6902 10.1548 93.817 11.6345H88.4392Z" fill="black"/>
<path d="M66.0602 7.02271C62.8397 7.02271 60.5557 9.39224 60.5557 12.7344C60.5557 16.0438 62.8397 18.3805 66.0923 18.3805C69.3603 18.3805 71.6443 16.0438 71.6443 12.7829C71.6443 9.42427 69.2968 7.02271 66.0602 7.02271ZM66.0923 15.8977C64.4737 15.8977 63.4745 14.6649 63.4745 12.75C63.4745 10.8032 64.4897 9.47271 66.0923 9.47271C67.7103 9.47271 68.7255 10.7868 68.7255 12.75C68.7255 14.6813 67.7263 15.8977 66.0923 15.8977Z" fill="black"/>
<path d="M54.593 7.02582C53.2738 7.02582 52.2799 7.48676 51.2861 8.62973H50.9599C50.2923 7.5977 49.203 7.02582 47.9808 7.02582C47.3705 7.01972 46.7676 7.16195 46.2216 7.4408C45.6757 7.71965 45.2023 8.12714 44.8404 8.62973H44.5142L44.4982 8.6141V7.24848H41.7681V18.1422H44.7182V12.536C44.7182 10.7258 45.4638 9.66176 46.7524 9.66176C47.9479 9.66176 48.724 10.5672 48.724 11.9485V18.1422H51.6895V12.536C51.6895 10.7391 52.435 9.66176 53.7397 9.66176C54.9192 9.66176 55.68 10.5672 55.68 11.9649V18.1422H58.6462V11.5993C58.6462 8.75707 57.1551 7.02582 54.593 7.02582Z" fill="black"/>
<path d="M103.201 14.3641H102.99C102.99 14.1704 101.704 10.7204 100.861 8.58287L100.334 7.24615H97.3613L101.578 18.1782L99.9165 22.3438H102.868L108.94 7.25006H105.967L105.481 8.39303L103.837 12.5547C103.373 13.7172 103.183 14.2563 103.201 14.3641Z" fill="black"/>
<path d="M79.8266 7.02588C78.5066 7.02588 77.373 7.61338 76.6122 8.66182H76.3013L76.2707 8.64619V7.24854H73.5391V18.1423H76.4892V12.5681C76.4892 10.7899 77.3295 9.67744 78.7098 9.67744C79.9985 9.67744 80.9457 10.6618 80.9457 12.2181V18.1415H83.8959V11.5681C83.8959 8.9001 82.1878 7.02588 79.8266 7.02588Z" fill="black"/>
<path d="M21.7321 0.781311C15.3582 0.781311 10.2363 6.05475 10.2363 12.5001C10.2363 18.9985 15.4086 24.2188 21.7306 24.2188C28.0525 24.2188 33.2294 18.9454 33.2294 12.5001C33.2294 6.05475 28.054 0.781311 21.7321 0.781311ZM21.7321 16.868C19.3808 16.868 17.4482 14.8969 17.4482 12.5001C17.4482 10.1032 19.3808 8.13209 21.7321 8.13209C24.0833 8.13209 26.0167 10.1032 26.0167 12.5001C25.964 14.8969 24.0833 16.868 21.7321 16.868Z" fill="#8B3FFD"/>
<path d="M10.236 4.18597V21.2313H6.16299L0.937988 4.18597H10.236Z" fill="#8B3FFD"/>
</svg>
