<svg width="110" height="32" viewBox="0 0 110 32" fill="none" xmlns="http://www.w3.org/2000/svg">
<g clip-path="url(#clip0_1498_11255)">
<path d="M3.20637 12.9348H6.4512C7.97412 12.9348 8.94541 12.1389 8.94541 10.9015C8.94541 9.60113 7.99383 8.7815 6.4709 8.7815H3.20637V12.9348ZM3.20637 6.3561H6.03353C7.27078 6.3561 8.06673 5.75911 8.06673 4.54541C8.06673 3.33173 7.25108 2.73473 6.03353 2.73473H3.20637V6.35807V6.3561ZM1.68345 15.6755C0.601837 15.6755 0.00488281 15.0785 0.00488281 13.9968V1.67867C0.00488281 0.596992 0.601837 0 1.68345 0H6.03551C9.39263 0 11.2899 1.39298 11.2899 3.91099C11.2899 5.83201 10.3383 6.82699 9.25669 7.18164C10.9786 7.49098 12.1725 9.03566 12.1725 10.9803C12.1725 13.6737 10.228 15.6853 6.45317 15.6853H1.68345V15.6755Z" fill="#5F2AD0"/>
<path d="M19.6353 15.9C16.6565 15.9 13.4746 14.109 13.4746 9.8927C13.4746 5.67632 16.6091 3.93066 19.5684 3.93066C20.6263 3.93066 21.6881 4.15329 22.5472 4.571C23.1638 4.88033 23.4298 5.38669 23.4298 5.87532C23.4298 6.53536 22.9451 7.1757 22.1926 7.1757C22.0369 7.1757 21.8615 7.13235 21.6626 7.06339C21.1543 6.8644 20.581 6.75405 20.0077 6.75405C18.3093 6.75405 16.6072 7.66038 16.6072 9.9124C16.6072 11.989 18.2187 13.0471 19.984 13.0471C20.5376 13.0471 21.109 12.9604 21.6626 12.7377C21.838 12.6708 21.9935 12.6511 22.1473 12.6511C22.8742 12.6511 23.3845 13.3112 23.3845 13.9988C23.3845 14.4834 23.1422 14.9937 22.5215 15.2795C21.6823 15.6774 20.6677 15.8962 19.6293 15.8962L19.6353 15.9Z" fill="#5F2AD0"/>
<path d="M27.52 8.74396H33.196C33.064 7.35099 31.8918 6.40525 30.3471 6.40525C28.8045 6.40328 27.6125 7.35492 27.52 8.74396ZM36.2438 9.42765C36.2438 10.3537 35.6468 10.8206 34.6973 10.8206H27.5219C27.6539 12.2766 28.9581 13.3151 30.5697 13.3151C31.6513 13.3151 32.4473 12.8736 33.0443 12.1663C33.3536 11.792 33.7082 11.658 34.0589 11.658C34.7661 11.658 35.4065 12.255 35.4065 12.9821C35.4065 13.2677 35.2941 13.5987 35.0085 13.9081C33.8835 15.1454 32.404 15.8961 30.55 15.8961C26.9939 15.8961 24.4131 13.5101 24.4131 9.93401C24.4131 6.35797 26.8876 3.8833 30.3511 3.8833C33.8165 3.8833 35.8478 6.11562 36.226 9.09467C36.2497 9.20698 36.2497 9.31731 36.2497 9.42569L36.2438 9.42765Z" fill="#5F2AD0"/>
<path d="M37.8564 5.6529C37.8564 4.68156 38.3864 4.12988 39.3556 4.12988H44.6396C45.3922 4.12988 46.0325 4.77021 46.0325 5.52287C46.0325 6.31886 45.3922 6.93555 44.6396 6.93555H40.9475V14.267C40.9475 15.1063 40.2403 15.8333 39.401 15.8333C38.5617 15.8333 37.8545 15.1063 37.8545 14.267V5.6529H37.8564Z" fill="#5F2AD0"/>
<path d="M55.7832 9.8927C55.7832 8.08202 54.4593 6.73435 52.6053 6.73435C50.7515 6.73435 49.3803 8.05838 49.3803 9.8927C49.3803 11.727 50.7278 13.0944 52.6053 13.0944C54.483 13.0944 55.7832 11.7251 55.7832 9.8927ZM58.9413 5.54037V14.4834C58.9413 18.5008 56.4905 21.1075 52.3827 21.1075C50.8598 21.1075 49.1616 20.6898 48.1863 20.1362C47.5894 19.8051 47.3234 19.2732 47.3234 18.7885C47.3234 18.1717 47.7647 17.5945 48.5607 17.5945C48.7359 17.5945 48.9153 17.6182 49.1143 17.6812C49.7979 17.8802 50.6806 18.3885 52.1404 18.3885C54.678 18.3885 55.8069 16.9089 55.8069 14.4775V13.6816C55.2336 15.0509 53.7106 15.8902 51.7898 15.8902C48.3006 15.8902 46.2241 13.1535 46.2241 9.85921C46.2241 6.56492 48.411 3.87549 51.9631 3.87549C53.3993 3.87549 54.9223 4.51583 55.8049 5.79651V5.64086C55.8049 4.51583 56.6008 3.96219 57.3968 3.96219C58.1927 3.96219 58.9434 4.51583 58.9434 5.52855L58.9413 5.54037Z" fill="#5F2AD0"/>
<path d="M70.0372 9.89652C70.0372 8.08584 68.7134 6.73817 66.8594 6.73817C65.0055 6.73817 63.6342 8.06219 63.6342 9.89652C63.6342 11.7308 64.9819 13.0982 66.8594 13.0982C68.7369 13.0982 70.0372 11.7308 70.0372 9.89652ZM73.2151 5.58951V14.2685C73.2151 15.2833 72.4428 15.835 71.6488 15.835C70.8529 15.835 70.0569 15.2812 70.0569 14.2685V13.6952C69.4836 15.0646 67.9607 15.9038 66.0398 15.9038C62.5507 15.9038 60.4741 13.1672 60.4741 9.87287C60.4741 6.57858 62.661 3.88916 66.2131 3.88916C67.6495 3.88916 69.1724 4.52949 70.055 5.81018V5.59344C70.055 4.53541 70.8509 4.02708 71.6469 4.02708C72.4428 4.02708 73.2131 4.53541 73.2131 5.59344V5.58951H73.2151Z" fill="#5F2AD0"/>
<path d="M74.8545 14.1996C74.8545 13.2737 75.6268 12.521 76.5527 12.521C77.4787 12.521 78.2313 13.2737 78.2313 14.1996C78.2313 15.1256 77.4787 15.898 76.5527 15.898C75.6268 15.898 74.8545 15.1474 74.8545 14.1996Z" fill="#5F2AD0"/>
<path d="M90.7872 12.7891V2.89235H86.2165L85.5762 9.69374C85.4009 11.5478 84.9792 12.7201 84.8039 12.7851H90.7872V12.7891ZM79.8569 18.3295V13.8668C79.8569 13.0707 80.4302 12.6294 81.0705 12.6294H81.2262C81.8428 12.6294 82.1777 12.1447 82.3747 9.89274L83.147 1.61168C83.2337 0.596993 83.744 0 84.8256 0H92.3554C93.4135 0 93.9907 0.596993 93.9907 1.63533V12.7851H94.3887C95.3403 12.7851 95.888 13.3584 95.888 14.4204V18.3314C95.888 19.1038 95.224 19.7677 94.4518 19.7677C93.6794 19.7677 93.0391 19.1077 93.0391 18.3314V15.6813H82.682V18.3314C82.682 19.1038 82.0417 19.7677 81.2695 19.7677C80.4972 19.7658 79.8569 19.1057 79.8569 18.3295Z" fill="#FF007B"/>
<path d="M106.401 9.89652C106.401 8.08584 105.077 6.73817 103.224 6.73817C101.37 6.73817 99.9985 8.06219 99.9985 9.89652C99.9985 11.7308 101.346 13.0982 103.224 13.0982C105.101 13.0982 106.401 11.7308 106.401 9.89652ZM109.579 5.58951V14.2685C109.579 15.2833 108.807 15.835 108.013 15.835C107.217 15.835 106.421 15.2812 106.421 14.2685V13.6952C105.848 15.0646 104.325 15.9038 102.404 15.9038C98.9149 15.9038 96.8384 13.1672 96.8384 9.87287C96.8384 6.57858 99.0252 3.88916 102.577 3.88916C104.014 3.88916 105.537 4.52949 106.419 5.81018V5.59344C106.419 4.53541 107.215 4.02708 108.011 4.02708C108.807 4.02708 109.577 4.53541 109.577 5.59344V5.58951H109.579Z" fill="#FF007B"/>
<path d="M5.73313 24.0376V28.8746C5.73313 29.2214 5.47503 29.4874 5.13815 29.4874C4.7914 29.4874 4.53528 29.2214 4.53528 28.8746V25.9803L3.43396 27.7102C3.26454 27.9762 3.10495 28.0924 2.86656 28.0924C2.63605 28.0924 2.46662 27.9762 2.29916 27.7102L1.19785 25.9606V28.8726C1.19785 29.2195 0.93976 29.4854 0.602865 29.4854C0.256118 29.4854 0 29.2195 0 28.8726V24.0356C0 23.681 0.248239 23.415 0.585134 23.415C0.843223 23.415 1.01068 23.5391 1.21558 23.8761L2.86656 26.4946L4.51754 23.8761C4.73032 23.5391 4.88991 23.415 5.14799 23.415C5.48489 23.417 5.73313 23.683 5.73313 24.0376Z" fill="#5F2AD0"/>
<path d="M10.828 25.466C10.828 25.5546 10.8102 25.6433 10.757 25.7418L8.82236 29.71C8.3515 30.6774 7.81955 31.0852 7.01967 31.0852C6.82464 31.0852 6.64732 31.0497 6.51335 30.9867C6.32618 30.9058 6.21191 30.7206 6.21191 30.5158C6.21191 30.2222 6.45228 30.0016 6.75371 30.0016C6.79901 30.0016 6.83448 30.0114 6.8601 30.0114C7.2423 30.0114 7.49842 29.8518 7.69543 29.4518L7.85501 29.0972L6.33801 25.7516C6.28481 25.6452 6.25723 25.5566 6.25723 25.4679C6.25723 25.1567 6.5232 24.8906 6.84236 24.8906C7.07287 24.8906 7.27777 25.0147 7.36642 25.2276L8.52881 27.8284L9.71877 25.2276C9.80743 25.0226 10.0123 24.8906 10.2507 24.8906C10.562 24.8887 10.828 25.1567 10.828 25.466Z" fill="#5F2AD0"/>
<path d="M15.1149 25.5995V28.8742C15.1149 29.2209 14.8567 29.487 14.5199 29.487C14.183 29.487 13.9248 29.2209 13.9248 28.8742V25.9976H12.8235V26.3975C12.8235 27.9777 12.3448 28.953 11.3499 29.3708C11.2159 29.4238 11.1095 29.4417 11.013 29.4417C10.7116 29.4417 10.4712 29.2012 10.4712 28.9097C10.4712 28.626 10.6308 28.5275 10.8357 28.4034C11.3065 28.155 11.6336 27.5954 11.6336 26.0331V25.5976C11.6336 25.2509 11.8996 24.9849 12.2462 24.9849H14.5002C14.8488 24.9869 15.1149 25.2528 15.1149 25.5995Z" fill="#5F2AD0"/>
<path d="M17.3111 25.4936V26.1063H18.1721C19.2281 26.1063 20.018 26.7092 20.018 27.7396C20.018 28.7779 19.2281 29.3809 18.1721 29.3809H16.7259C16.3713 29.3809 16.1133 29.1228 16.1133 28.7681V25.4936C16.1133 25.1467 16.3615 24.8906 16.7161 24.8906C17.055 24.8887 17.3111 25.1467 17.3111 25.4936ZM17.3111 27.1269V28.3701H18.0912C18.4991 28.3701 18.8005 28.1574 18.8005 27.7575C18.8005 27.3574 18.4991 27.1269 18.0814 27.1269H17.3111Z" fill="#5F2AD0"/>
<path d="M21.2621 28.8743V25.9898H20.3224C20.0288 25.9898 19.8081 25.7769 19.8081 25.4834C19.8081 25.1997 20.0307 24.9771 20.3224 24.9771H23.4016C23.7031 24.9771 23.9159 25.1997 23.9159 25.4834C23.9159 25.7769 23.7031 25.9898 23.4016 25.9898H22.4521V28.8743C22.4521 29.221 22.2038 29.4871 21.8571 29.4871C21.5182 29.4871 21.2621 29.221 21.2621 28.8743Z" fill="#5F2AD0"/>
<path d="M28.4653 25.4936V28.8745C28.4653 29.2212 28.2073 29.4873 27.8703 29.4873C27.5334 29.4873 27.2754 29.2212 27.2754 28.8745V26.9476L25.4648 29.1936C25.2954 29.3986 25.1357 29.4873 24.9328 29.4873C24.5959 29.4873 24.3379 29.2212 24.3379 28.8745V25.4936C24.3379 25.1467 24.5959 24.8906 24.9407 24.8906C25.2776 24.8906 25.5357 25.1487 25.5357 25.4936V27.4461L27.3384 25.1822C27.5078 24.9773 27.6674 24.8887 27.8703 24.8887C28.2073 24.8887 28.4653 25.1467 28.4653 25.4936Z" fill="#5F2AD0"/>
<path d="M33.9541 27.2862C33.9541 28.5373 32.9692 29.4791 31.6471 29.4791C30.2365 29.4791 29.3125 28.4585 29.3125 26.8862V26.4784C29.3125 24.4628 30.0848 23.4344 31.9762 22.9457L32.7307 22.7507C32.9357 22.6975 32.9967 22.6797 33.0775 22.6797C33.3612 22.6797 33.5917 22.9201 33.5917 23.2118C33.5917 23.4777 33.4144 23.6728 33.1031 23.7535L32.2953 23.9663C31.1586 24.2599 30.6364 24.7741 30.5636 25.6706C30.9004 25.3061 31.3536 25.1032 31.8777 25.1032C33.0322 25.1032 33.9541 26.0784 33.9541 27.2862ZM32.7307 27.2862C32.7307 26.6734 32.252 26.1947 31.6294 26.1947C31.0167 26.1947 30.5379 26.6734 30.5379 27.2862C30.5379 27.8989 31.0266 28.3876 31.6294 28.3876C32.25 28.3876 32.7307 27.8989 32.7307 27.2862Z" fill="#5F2AD0"/>
<path d="M39.0259 25.4936V28.8745C39.0259 29.2212 38.7777 29.4873 38.431 29.4873C38.1197 29.4873 37.8714 29.2567 37.836 28.9454C37.5346 29.2921 37.0735 29.4873 36.514 29.4873C35.2807 29.4873 34.3843 28.5199 34.3843 27.1879C34.3843 25.8561 35.2807 24.8887 36.514 24.8887C37.0814 24.8887 37.5523 25.0935 37.8537 25.4383C37.8793 25.1192 38.1295 24.8887 38.4389 24.8887C38.7777 24.8887 39.0259 25.1467 39.0259 25.4936ZM37.8458 27.1879C37.8458 26.4687 37.3927 25.9723 36.7366 25.9723C36.0806 25.9723 35.5999 26.4865 35.5999 27.1879C35.5999 27.8894 36.0707 28.3958 36.7366 28.3958C37.4026 28.3958 37.8458 27.9071 37.8458 27.1879Z" fill="#5F2AD0"/>
<path d="M44.0779 25.4936V28.8745C44.0779 29.2213 43.8198 29.4774 43.4829 29.4774C43.146 29.4774 42.8879 29.2194 42.8879 28.8745V27.6136H41.2291V28.8745C41.2291 29.2213 40.9709 29.4774 40.6341 29.4774C40.2874 29.4774 40.0312 29.2194 40.0312 28.8745V25.4936C40.0312 25.1467 40.2893 24.8906 40.6341 24.8906C40.9709 24.8906 41.2291 25.1488 41.2291 25.4936V26.5949H42.8879V25.4936C42.8879 25.1467 43.1361 24.8906 43.4829 24.8906C43.8198 24.8887 44.0779 25.1467 44.0779 25.4936Z" fill="#5F2AD0"/>
<path d="M46.2686 25.4935V28.8745C46.2686 29.2212 46.0106 29.4872 45.6736 29.4872C45.3269 29.4872 45.0708 29.2212 45.0708 28.8745V25.4935C45.0708 25.1468 45.3289 24.8905 45.6736 24.8905C46.0204 24.8886 46.2686 25.1468 46.2686 25.4935ZM49.1096 28.9375C49.1096 29.239 48.8693 29.4872 48.5599 29.4872C48.3826 29.4872 48.2408 29.4242 48.1423 29.2922L46.643 27.4362C46.5189 27.2766 46.4656 27.1426 46.4656 27.0106C46.4656 26.8688 46.5288 26.7347 46.6785 26.5673L48.0713 25.0679C48.1777 24.9516 48.3196 24.8807 48.4791 24.8905C48.7905 24.9005 49.0289 25.131 49.0289 25.4324C49.0289 25.5742 48.9658 25.726 48.8516 25.8403L47.7324 27.0205L48.9658 28.5651C49.0643 28.6893 49.1096 28.8036 49.1096 28.9375Z" fill="#5F2AD0"/>
<path d="M54.0846 27.1801C54.0846 28.4588 53.0365 29.4794 51.7146 29.4794C50.4005 29.4794 49.3721 28.4667 49.3721 27.1801C49.3721 25.8935 50.4024 24.8906 51.7244 24.8906C53.0365 24.8887 54.0846 25.9014 54.0846 27.1801ZM50.5876 27.188C50.5876 27.8795 51.0663 28.378 51.7244 28.378C52.3726 28.378 52.8611 27.8716 52.8611 27.188C52.8611 26.4964 52.3726 25.9802 51.7244 25.9802C51.0663 25.9821 50.5876 26.4866 50.5876 27.188Z" fill="#5F2AD0"/>
<path d="M58.7367 28.0485C58.7367 28.8288 58.0886 29.3805 57.1744 29.3805H55.4072C55.0526 29.3805 54.7944 29.1223 54.7944 28.7677V25.5995C54.7944 25.2527 55.0526 24.9868 55.4072 24.9868H56.871C57.8127 24.9868 58.4333 25.4754 58.4333 26.2122C58.4333 26.5413 58.3092 26.825 58.0787 27.0378C58.5062 27.2407 58.7367 27.5974 58.7367 28.0485ZM55.9411 26.6911H56.8474C57.1488 26.6911 57.3261 26.5571 57.3261 26.3088C57.3261 26.0684 57.1665 25.9443 56.8474 25.9443H55.9411V26.6911ZM57.6354 27.9599C57.6354 27.6939 57.4226 27.5343 57.0759 27.5343H55.9392V28.4131H57.0759C57.4226 28.4131 57.6354 28.2358 57.6354 27.9599Z" fill="#5F2AD0"/>
<path d="M59.1475 27.1801C59.1475 25.8935 60.1778 24.8906 61.4998 24.8906C62.2444 24.8906 62.9379 25.2453 63.2749 25.7615C63.3557 25.8856 63.3813 25.9842 63.3813 26.0807C63.3813 26.3742 63.1409 26.6126 62.8493 26.6126C62.6799 26.6126 62.5479 26.5594 62.4415 26.4255C62.2189 26.1595 61.9095 25.9821 61.5175 25.9821C60.8437 25.9821 60.363 26.4787 60.363 27.1801C60.363 27.8894 60.8417 28.3879 61.5175 28.3879C61.8997 28.3879 62.2012 28.2106 62.4415 27.9446C62.5656 27.8026 62.6897 27.7573 62.8493 27.7573C63.1429 27.7573 63.3813 27.9978 63.3813 28.2894C63.3813 28.3958 63.3557 28.4844 63.2827 28.5908C62.9183 29.1504 62.28 29.4873 61.4978 29.4873C60.1778 29.4873 59.1475 28.4667 59.1475 27.1801Z" fill="#5F2AD0"/>
<path d="M65.2959 25.4935V28.8745C65.2959 29.2212 65.0379 29.4872 64.701 29.4872C64.3543 29.4872 64.0981 29.2212 64.0981 28.8745V25.4935C64.0981 25.1468 64.3562 24.8905 64.701 24.8905C65.0477 24.8886 65.2959 25.1468 65.2959 25.4935ZM68.1369 28.9375C68.1369 29.239 67.8965 29.4872 67.5873 29.4872C67.41 29.4872 67.2681 29.4242 67.1695 29.2922L65.6703 27.4362C65.5462 27.2766 65.493 27.1426 65.493 27.0106C65.493 26.8688 65.5541 26.7347 65.7057 26.5673L67.0986 25.0679C67.205 24.9516 67.3468 24.8807 67.5065 24.8905C67.8177 24.9005 68.0561 25.131 68.0561 25.4324C68.0561 25.5742 67.9931 25.726 67.8788 25.8403L66.7598 27.0205L67.9931 28.5651C68.0935 28.6893 68.1369 28.8036 68.1369 28.9375Z" fill="#5F2AD0"/>
<path d="M72.9102 25.4936V28.8745C72.9102 29.2212 72.6521 29.4873 72.3153 29.4873C71.9783 29.4873 71.7203 29.2212 71.7203 28.8745V26.9476L69.9097 29.1936C69.7403 29.3986 69.5807 29.4873 69.3778 29.4873C69.0409 29.4873 68.7827 29.2212 68.7827 28.8745V25.4936C68.7827 25.1467 69.0409 24.8906 69.3857 24.8906C69.7225 24.8906 69.9806 25.1487 69.9806 25.4936V27.4461L71.7833 25.1822C71.9527 24.9773 72.1124 24.8887 72.3153 24.8887C72.6521 24.8887 72.9102 25.1467 72.9102 25.4936Z" fill="#5F2AD0"/>
<path d="M78.0338 25.4932V28.8742C78.0338 29.2209 77.7756 29.4869 77.4387 29.4869C77.1019 29.4869 76.8437 29.2209 76.8437 28.8742V26.9472L75.0332 29.1934C74.8637 29.3982 74.7041 29.4869 74.5012 29.4869C74.1644 29.4869 73.9062 29.2209 73.9062 28.8742V25.4932C73.9062 25.1463 74.1644 24.8902 74.5091 24.8902C74.846 24.8902 75.1041 25.1484 75.1041 25.4932V27.4457L76.9067 25.1819C77.0762 24.9769 77.2358 24.8883 77.4387 24.8883C77.7775 24.8883 78.0338 25.1463 78.0338 25.4932ZM74.4933 23.0067C74.4933 22.7309 74.6982 22.5181 74.9544 22.5181C75.1947 22.5181 75.3445 22.6343 75.4154 22.8826C75.4863 23.1938 75.7089 23.389 76.0104 23.389C76.3039 23.389 76.5246 23.1938 76.5955 22.8826C76.6664 22.6422 76.826 22.5181 77.0487 22.5181C77.3146 22.5181 77.5195 22.7309 77.5195 23.0067C77.5195 23.6983 76.8358 24.2933 76.0104 24.2933C75.1947 24.2953 74.4933 23.6904 74.4933 23.0067Z" fill="#5F2AD0"/>
<path d="M81.3369 27.2155C81.3369 25.9545 82.3398 24.9614 83.6006 24.9614C84.3808 24.9614 85.0034 25.3339 85.358 25.8677C85.4112 25.9486 85.421 26.0018 85.421 26.055C85.421 26.2244 85.2792 26.3663 85.1098 26.3663C85.029 26.3663 84.9502 26.3485 84.8616 26.2421C84.568 25.8777 84.17 25.5939 83.6106 25.5939C82.722 25.5939 82.0403 26.2953 82.0403 27.2174C82.0403 28.1494 82.7141 28.8508 83.6106 28.8508C84.17 28.8508 84.57 28.567 84.8616 28.2026C84.9502 28.1041 85.031 28.0863 85.1019 28.0863C85.2792 28.0863 85.421 28.2203 85.421 28.3976C85.421 28.4508 85.4133 28.504 85.358 28.5849C84.9936 29.1089 84.3808 29.4812 83.6006 29.4812C82.3398 29.4793 81.3369 28.4764 81.3369 27.2155Z" fill="#5F2AD0"/>
<path d="M90.0918 26.9574V27.0027C90.0918 27.2865 89.9401 27.4283 89.674 27.4283H86.6204C86.7091 28.2794 87.3394 28.8488 88.2083 28.8488C88.6338 28.8488 89.024 28.6971 89.3352 28.4312C89.4061 28.368 89.4869 28.3326 89.5657 28.3326C89.7351 28.3326 89.8672 28.4568 89.8672 28.6341C89.8672 28.7503 89.8218 28.8291 89.6977 28.9454C89.2722 29.3 88.756 29.4774 88.1985 29.4774C86.8843 29.4774 85.9092 28.51 85.9092 27.2233C85.9092 25.9545 86.8863 24.9595 88.1196 24.9595C89.2662 24.9615 90.0918 25.7949 90.0918 26.9574ZM86.648 26.8253H89.3904C89.3726 26.0983 88.8585 25.582 88.1039 25.582C87.3651 25.582 86.7977 26.0884 86.648 26.8253Z" fill="#5F2AD0"/>
<path d="M95.4209 27.2155C95.4209 28.512 94.5068 29.4794 93.2813 29.4794C92.6154 29.4794 92.0303 29.1957 91.6934 28.7523V30.7324C91.6934 30.9374 91.5417 31.0871 91.3565 31.0871C91.1516 31.0871 91.0098 30.9276 91.0098 30.7324V25.3005C91.0098 25.1053 91.1516 24.9536 91.3565 24.9536C91.5436 24.9536 91.6934 25.1053 91.6934 25.3005V25.6905C92.0303 25.2473 92.6075 24.9635 93.2813 24.9635C94.5068 24.9615 95.4209 25.9289 95.4209 27.2155ZM94.7195 27.2234C94.7195 26.2816 94.0714 25.5901 93.1848 25.5901C92.2884 25.5901 91.6855 26.2461 91.6855 27.2135C91.6855 28.1908 92.2805 28.8469 93.1848 28.8469C94.0714 28.8489 94.7195 28.1553 94.7195 27.2234Z" fill="#5F2AD0"/>
<path d="M99.9707 28.112C99.9707 28.8666 99.3678 29.3809 98.4794 29.3809H96.7121C96.5072 29.3809 96.3574 29.2212 96.3574 29.0262V25.4127C96.3574 25.2177 96.5092 25.0581 96.7121 25.0581H98.3C99.1433 25.0581 99.6752 25.4936 99.6752 26.1772C99.6752 26.5417 99.5235 26.8609 99.2497 27.0736C99.7127 27.2687 99.9707 27.6332 99.9707 28.112ZM97.0411 26.8254H98.3099C98.771 26.8254 99.0192 26.6126 99.0192 26.2402C99.0192 25.8679 98.7789 25.6728 98.3099 25.6728H97.0411V26.8254ZM99.3225 28.0765C99.3225 27.6766 98.9936 27.4284 98.434 27.4284H97.0411V28.7779H98.434C98.9857 28.7779 99.3225 28.5021 99.3225 28.0765Z" fill="#5F2AD0"/>
<path d="M104.598 25.3161V29.1246C104.598 29.3197 104.447 29.4793 104.252 29.4793C104.064 29.4793 103.915 29.3197 103.915 29.1246V26.2224L101.562 29.2843C101.446 29.4182 101.35 29.4793 101.243 29.4793C101.048 29.4793 100.906 29.3197 100.906 29.1246V25.3161C100.906 25.121 101.048 24.9615 101.253 24.9615C101.44 24.9615 101.59 25.121 101.59 25.3161V28.2892L103.942 25.1644C104.049 25.0226 104.137 24.9595 104.261 24.9595C104.447 24.9615 104.598 25.121 104.598 25.3161Z" fill="#5F2AD0"/>
<path d="M105.498 27.2155C105.498 25.9545 106.5 24.9614 107.761 24.9614C108.541 24.9614 109.164 25.3339 109.519 25.8677C109.572 25.9486 109.58 26.0018 109.58 26.055C109.58 26.2244 109.438 26.3663 109.268 26.3663C109.188 26.3663 109.109 26.3485 109.02 26.2421C108.727 25.8777 108.329 25.5939 107.769 25.5939C106.881 25.5939 106.199 26.2953 106.199 27.2174C106.199 28.1494 106.873 28.8508 107.769 28.8508C108.329 28.8508 108.729 28.567 109.02 28.2026C109.109 28.1041 109.19 28.0863 109.261 28.0863C109.438 28.0863 109.58 28.2203 109.58 28.3976C109.58 28.4508 109.572 28.504 109.519 28.5849C109.154 29.1089 108.541 29.4812 107.761 29.4812C106.5 29.4793 105.498 28.4764 105.498 27.2155Z" fill="#5F2AD0"/>
</g>
<defs>
<clipPath id="clip0_1498_11255">
<rect width="110" height="31.087" fill="white"/>
</clipPath>
</defs>
</svg>
