<svg width="156" height="28" viewBox="0 0 156 28" fill="none" xmlns="http://www.w3.org/2000/svg">
<path fill-rule="evenodd" clip-rule="evenodd" d="M11.9995 16.6488L4.04551 24.7785L0.889974 21.5569L8.84494 13.4243L7.18498 11.7265V8.37449L6.03236 7.19542V10.1185L5.02996 11.1446L0.996733 7.02064L0 8.04004C0.00661339 7.271 0.156832 5.04512 2.00291 3.18959C3.99638 1.23014 6.14762 2.11255 6.8836 2.86554L10.9149 6.98757L9.88608 8.03721L11.9995 10.1998L14.112 8.0391L13.0851 6.98851L17.1145 2.86648C17.8505 2.1135 20.0027 1.23108 21.9952 3.19054C23.8422 5.04607 23.9924 7.27194 24 8.04099L23.0023 7.02064L18.9691 11.1455L17.9667 10.1195V7.19636L16.8131 8.37544V11.7275L15.1541 13.4252L23.1091 21.5578L19.9535 24.7795L11.9995 16.6488Z" fill="#2B2D33"/>
<path d="M37.78 21V6H42.14C45.5 6 47.62 7.86 47.62 10.72C47.62 13.32 45.78 15.76 42.14 15.76H40.44V21H37.78ZM40.42 13.54H42.12C43.86 13.54 44.94 12.44 44.94 10.78C44.94 9.38 43.92 8.2 42.12 8.2H40.42V13.54ZM52.1498 21.24C49.9098 21.24 48.7898 19.84 48.7898 18.12C48.7898 16.34 50.0498 15.08 52.9698 15.08C54.1298 15.08 55.0698 15.32 55.0698 15.32V14.78C55.0698 13.44 54.4898 12.76 53.1298 12.76C51.6098 12.76 51.0898 13.84 51.0898 13.84H49.3698V12.52C49.3698 12.52 50.2898 10.72 53.1898 10.72C56.0298 10.72 57.5098 12.12 57.5098 14.84V21H55.4298L55.2098 19.62C54.7098 20.38 53.7698 21.24 52.1498 21.24ZM52.7498 19.32C54.2498 19.32 55.0698 18.24 55.0698 17.4V16.92C55.0698 16.92 54.2298 16.68 53.0498 16.68C51.6098 16.68 51.1898 17.32 51.1898 18C51.1898 18.92 51.7498 19.32 52.7498 19.32ZM60.2125 21V10.96H62.6325V17.54L67.2725 10.96H69.5525V21H67.1125V14.4L62.4725 21H60.2125ZM64.9725 9.44C62.5125 9.44 61.9125 7.86 61.8325 7.66V6.46H63.6125C63.6125 6.62 63.8125 7.72 64.9725 7.72C66.0525 7.72 66.3325 6.62 66.3325 6.46H68.1125V7.66C68.0525 7.86 67.4525 9.44 64.9725 9.44ZM77.1009 26V21.18C73.8809 21.06 71.7409 18.82 71.7409 15.96C71.7409 13.1 73.8809 10.88 77.1009 10.76V7.12H79.5209V10.76C82.7209 10.88 84.8609 13.12 84.8609 15.98C84.8609 18.86 82.7209 21.06 79.5209 21.18V26H77.1009ZM77.1009 19.04V12.9C75.2809 12.92 74.1809 14.28 74.1809 15.96C74.1809 17.66 75.2809 19.02 77.1009 19.04ZM79.5209 19.04C81.3409 19.02 82.4409 17.66 82.4409 15.98C82.4409 14.28 81.3409 12.92 79.5209 12.9V19.04ZM98.7903 17.4L94.8103 9.56V21H92.3503V6H95.6703L99.8503 14.1L103.93 6H107.23V21H104.55V9.56L100.59 17.4H98.7903ZM115.108 21.24C111.588 21.24 109.808 19.02 109.808 15.98C109.808 13.08 111.628 10.72 114.908 10.72C118.208 10.72 119.628 12.68 119.628 15.26C119.628 15.92 119.528 16.44 119.528 16.44H112.248C112.388 18.14 113.328 19.22 115.128 19.22C117.208 19.22 117.668 18.14 117.668 18.14H119.428V19.46C119.428 19.46 118.428 21.24 115.108 21.24ZM112.328 14.8H117.268C117.268 13.64 116.508 12.72 114.908 12.72C113.308 12.72 112.588 13.58 112.328 14.8ZM120.713 23.8V19.06H121.753C122.293 18.66 122.573 17.52 122.713 15.64L123.033 10.96H130.813V19.06H132.373V23.8H130.173V21H122.913V23.8H120.713ZM124.093 19.06H128.413V12.88H125.053L124.813 15.96C124.733 17.28 124.513 18.3 124.093 19.06ZM134.353 21V10.96H136.773V17.54L141.413 10.96H143.693V21H141.253V14.4L136.613 21H134.353ZM149.162 21.24C146.922 21.24 145.802 19.84 145.802 18.12C145.802 16.34 147.062 15.08 149.982 15.08C151.142 15.08 152.082 15.32 152.082 15.32V14.78C152.082 13.44 151.502 12.76 150.142 12.76C148.622 12.76 148.102 13.84 148.102 13.84H146.382V12.52C146.382 12.52 147.302 10.72 150.202 10.72C153.042 10.72 154.522 12.12 154.522 14.84V21H152.442L152.222 19.62C151.722 20.38 150.782 21.24 149.162 21.24ZM149.762 19.32C151.262 19.32 152.082 18.24 152.082 17.4V16.92C152.082 16.92 151.242 16.68 150.062 16.68C148.622 16.68 148.202 17.32 148.202 18C148.202 18.92 148.762 19.32 149.762 19.32Z" fill="#2B2D33"/>
</svg>
