<svg width="500" height="178" viewBox="0 0 500 178" fill="none" xmlns="http://www.w3.org/2000/svg">
<path fill-rule="evenodd" clip-rule="evenodd" d="M344.172 60.8398C354.396 60.8398 362.24 62.8006 367.702 66.7223C373.234 70.5738 376 76.3512 376 84.0544C376 88.2561 375.23 91.8626 373.689 94.8738C372.219 97.815 370.048 100.231 367.177 102.122C364.375 103.943 360.944 105.273 356.882 106.113C352.821 106.954 348.234 107.374 343.122 107.374H335.033V134.37H324.844V62.6256C327.715 61.9253 330.902 61.4701 334.403 61.26C337.975 60.9799 341.231 60.8398 344.172 60.8398ZM345.013 69.7685C340.671 69.7685 337.344 69.8736 335.033 70.0836V98.6554H342.702C346.203 98.6554 349.354 98.4453 352.155 98.0251C354.957 97.5349 357.303 96.7646 359.193 95.7142C361.154 94.5937 362.66 93.0881 363.71 91.1973C364.761 89.3065 365.286 86.8905 365.286 83.9493C365.286 81.1482 364.726 78.8372 363.605 77.0165C362.555 75.1957 361.084 73.7601 359.193 72.7097C357.373 71.5893 355.237 70.8189 352.786 70.3988C350.335 69.9786 347.744 69.7685 345.013 69.7685ZM409.703 127.227C407.952 127.297 405.921 127.332 403.61 127.332C399.759 127.332 396.712 126.667 394.471 125.336C392.23 123.936 391.11 121.485 391.11 117.983C391.11 116.093 391.565 114.587 392.476 113.466C393.386 112.276 394.506 111.366 395.837 110.735C397.238 110.035 398.743 109.58 400.354 109.37C402.035 109.16 403.61 109.055 405.081 109.055C407.322 109.055 409.212 109.195 410.753 109.475C412.364 109.685 413.519 109.965 414.219 110.315V126.597C413.029 126.877 411.523 127.087 409.703 127.227ZM412.644 79.9577C409.983 78.9073 406.691 78.3821 402.77 78.3821C399.338 78.3821 396.152 78.6622 393.211 79.2224C390.27 79.7126 388.169 80.2378 386.908 80.7981L388.064 88.8864C389.254 88.3962 391.04 87.941 393.421 87.5208C395.872 87.0306 398.708 86.7855 401.929 86.7855C404.45 86.7855 406.481 87.1707 408.022 87.941C409.633 88.6413 410.893 89.6217 411.804 90.8822C412.714 92.0727 413.344 93.4733 413.694 95.0839C414.044 96.6246 414.219 98.2002 414.219 99.8109V102.542C413.939 102.472 413.449 102.367 412.749 102.227C412.049 102.087 411.208 101.947 410.228 101.807C409.317 101.597 408.337 101.457 407.287 101.387C406.236 101.246 405.221 101.176 404.24 101.176C401.159 101.176 398.218 101.492 395.417 102.122C392.616 102.752 390.165 103.732 388.064 105.063C385.963 106.394 384.282 108.144 383.022 110.315C381.831 112.486 381.236 115.077 381.236 118.088C381.236 121.24 381.761 123.936 382.812 126.177C383.862 128.418 385.333 130.238 387.223 131.639C389.114 132.969 391.355 133.95 393.946 134.58C396.537 135.21 399.373 135.526 402.455 135.526C404.626 135.526 406.796 135.42 408.967 135.21C411.208 135.07 413.274 134.895 415.165 134.685C417.056 134.475 418.736 134.265 420.207 134.055C421.748 133.775 422.938 133.565 423.778 133.425V99.2857C423.778 96.2044 423.428 93.4032 422.728 90.8822C422.028 88.2911 420.837 86.0852 419.157 84.2645C417.546 82.3737 415.375 80.9381 412.644 79.9577ZM433.948 145.505C432.757 145.224 431.777 144.909 431.007 144.559L429.221 152.437C429.501 152.577 429.956 152.753 430.587 152.963C431.287 153.173 432.022 153.348 432.792 153.488C433.633 153.698 434.473 153.838 435.313 153.908C436.154 154.048 436.959 154.118 437.729 154.118C440.601 154.118 443.157 153.768 445.398 153.068C447.709 152.367 449.774 151.282 451.595 149.811C453.416 148.341 455.062 146.45 456.532 144.139C458.073 141.898 459.543 139.202 460.944 136.051C464.515 127.787 467.842 118.929 470.923 109.475C474.004 99.9509 476.805 90.0418 479.327 79.7476H469.242C467.492 87.3807 465.636 94.8037 463.675 102.017C461.714 109.23 459.403 116.513 456.742 123.866C455.062 120.294 453.451 116.583 451.91 112.731C450.37 108.88 448.934 105.028 447.603 101.176C446.273 97.3248 445.047 93.5782 443.927 89.9367C442.877 86.2952 441.966 82.8989 441.196 79.7476H430.692C433.213 89.4115 436.364 98.9704 440.145 108.424C443.997 117.808 448.129 126.702 452.541 135.105C450.79 138.957 448.829 141.723 446.658 143.404C444.487 145.154 441.476 146.03 437.624 146.03C436.434 146.03 435.208 145.855 433.948 145.505ZM307.014 78.8021C305.964 78.6621 305.018 78.592 304.178 78.592C299.906 78.592 296.055 78.9772 292.623 79.7475C289.192 80.4478 286.321 81.2181 284.01 82.0585V134.37H293.779V88.4661C294.339 88.326 295.494 88.0809 297.245 87.7308C299.066 87.3106 300.887 87.1005 302.707 87.1005C305.508 87.1005 307.784 87.3106 309.535 87.7308C311.356 88.0809 312.651 88.3961 313.422 88.6762L315.102 80.1677C314.682 80.0276 314.017 79.8876 313.107 79.7475C312.266 79.5374 311.321 79.3624 310.27 79.2223C309.22 79.0122 308.135 78.8722 307.014 78.8021ZM222.601 107.164C222.601 102.332 223.302 98.1302 224.702 94.5587C226.103 90.9172 227.959 87.906 230.27 85.525C232.581 83.144 235.242 81.3583 238.253 80.1678C241.264 78.9773 244.345 78.3821 247.497 78.3821C254.85 78.3821 260.487 80.693 264.409 85.3149C268.33 89.8668 270.291 96.8347 270.291 106.219V107.899C270.291 108.529 270.256 109.125 270.186 109.685H232.791C233.211 115.357 234.856 119.664 237.728 122.605C240.599 125.546 245.081 127.017 251.173 127.017C254.605 127.017 257.476 126.737 259.787 126.177C262.168 125.546 263.953 124.951 265.144 124.391L266.509 132.584C265.319 133.215 263.218 133.88 260.207 134.58C257.266 135.28 253.904 135.631 250.123 135.631C245.361 135.631 241.229 134.93 237.728 133.53C234.296 132.059 231.46 130.063 229.219 127.542C226.978 125.021 225.298 122.045 224.177 118.614C223.127 115.112 222.601 111.296 222.601 107.164ZM260.102 101.807C260.172 97.3949 259.051 93.7884 256.74 90.9873C254.5 88.1161 251.383 86.6805 247.392 86.6805C245.151 86.6805 243.155 87.1357 241.404 88.0461C239.723 88.8864 238.288 90.0069 237.097 91.4074C235.907 92.808 234.962 94.4187 234.261 96.2394C233.631 98.0602 233.211 99.9159 233.001 101.807H260.102ZM223.785 70.3988V61.5752H167.797V70.3988H190.696V134.37H200.885V70.3988H223.785Z" fill="url(#paint0_linear_531_10)"/>
<path fill-rule="evenodd" clip-rule="evenodd" d="M49.4426 34.7581H68.6935V134.976H49.4426V34.7581Z" fill="url(#paint1_linear_531_10)"/>
<path fill-rule="evenodd" clip-rule="evenodd" d="M20 24H112.677C131.539 24 146.83 39.2905 146.83 58.1522C146.83 79.3168 129.672 96.474 108.508 96.474H104.93V134.976H85.6796V77.2231H108.508C119.04 77.2231 127.579 68.6848 127.579 58.1522C127.579 49.9225 120.907 43.2509 112.677 43.2509H20V24Z" fill="url(#paint2_linear_531_10)"/>
<path fill-rule="evenodd" clip-rule="evenodd" d="M112.677 24H20V43.2509H112.677C112.92 43.2509 113.161 43.2567 113.4 43.2681L113.424 43.2509C130.935 43.2509 145.131 53.6443 145.131 66.4653C145.131 67.3797 145.085 68.5411 144.992 69.9094C146.185 66.2047 146.83 62.2537 146.83 58.1522C146.83 39.2905 131.539 24 112.677 24Z" fill="url(#paint3_linear_531_10)"/>
<defs>
<linearGradient id="paint0_linear_531_10" x1="166.116" y1="95.3988" x2="505.838" y2="95.3988" gradientUnits="userSpaceOnUse">
<stop stop-color="#3F3F3F"/>
<stop offset="1" stop-color="#171717"/>
</linearGradient>
<linearGradient id="paint1_linear_531_10" x1="59.0681" y1="-10.5382" x2="59.0681" y2="135.542" gradientUnits="userSpaceOnUse">
<stop stop-color="#EFF5FF"/>
<stop offset="1" stop-color="#3185FF"/>
</linearGradient>
<linearGradient id="paint2_linear_531_10" x1="63.0314" y1="176.875" x2="139.469" y2="47.2143" gradientUnits="userSpaceOnUse">
<stop stop-color="#EFF5FF"/>
<stop offset="1" stop-color="#3185FF"/>
</linearGradient>
<linearGradient id="paint3_linear_531_10" x1="167.779" y1="24" x2="19.4338" y2="24" gradientUnits="userSpaceOnUse">
<stop stop-color="#EFF5FF"/>
<stop offset="1" stop-color="#3185FF"/>
</linearGradient>
</defs>
</svg>
